QuirkyRobot.ufo
<glyph name="exclam" format="2">
  <advance width="83"/>
  <unicode hex="0021"/>
  <outline>
    <contour>
      <point x="11" y="629" type="qcurve" smooth="yes"/>
      <point x="15" y="800" type="line"/>
      <point x="42" y="800" type="line" smooth="yes"/>
      <point x="44" y="800"/>
      <point x="47" y="800" type="qcurve" smooth="yes"/>
      <point x="68" y="800"/>
      <point x="75" y="756"/>
      <point x="73" y="624" type="qcurve" smooth="yes"/>
      <point x="73" y="619"/>
      <point x="73" y="613"/>
      <point x="73" y="603"/>
      <point x="73" y="599" type="qcurve" smooth="yes"/>
      <point x="71" y="434" type="line"/>
      <point x="46" y="434" type="line" smooth="yes"/>
      <point x="20" y="434"/>
      <point x="14" y="446" type="qcurve" smooth="yes"/>
      <point x="8" y="457"/>
    </contour>
    <contour>
      <point x="14" y="286" type="qcurve" smooth="yes"/>
      <point x="11" y="308"/>
      <point x="22" y="323"/>
      <point x="44" y="322" type="qcurve" smooth="yes"/>
      <point x="62" y="320"/>
      <point x="68" y="313"/>
      <point x="68" y="293" type="qcurve" smooth="yes"/>
      <point x="68" y="267" type="line"/>
      <point x="42" y="267" type="line" smooth="yes"/>
      <point x="25" y="267"/>
      <point x="16" y="273"/>
    </contour>
  </outline>
</glyph>
<glyph name="quotedbl" format="2">
  <advance width="235"/>
  <unicode hex="0022"/>
  <outline>
    <contour>
      <point x="12" y="759" type="qcurve" smooth="yes"/>
      <point x="17" y="800" type="line"/>
      <point x="75" y="800" type="line"/>
      <point x="75" y="720" type="line" smooth="yes"/>
      <point x="75" y="650"/>
      <point x="61" y="616"/>
      <point x="35" y="618" type="qcurve" smooth="yes"/>
      <point x="12" y="620" type="line"/>
      <point x="11" y="669" type="line" smooth="yes"/>
      <point x="8" y="712"/>
    </contour>
    <contour>
      <point x="156" y="733" type="qcurve" smooth="yes"/>
      <point x="161" y="800" type="line"/>
      <point x="226" y="800" type="line"/>
      <point x="222" y="743" type="line" smooth="yes"/>
      <point x="217" y="683"/>
      <point x="212" y="659" type="qcurve" smooth="yes"/>
      <point x="211" y="649"/>
      <point x="209" y="640"/>
      <point x="201" y="634"/>
      <point x="193" y="633"/>
      <point x="182" y="633" type="qcurve" smooth="yes"/>
      <point x="158" y="633"/>
      <point x="151" y="661"/>
    </contour>
  </outline>
</glyph>
<glyph name="numbersign" format="2">
  <advance width="527"/>
  <unicode hex="0023"/>
  <outline>
    <contour>
      <point x="124" y="766" type="qcurve" smooth="yes"/>
      <point x="127" y="800" type="line"/>
      <point x="186" y="800" type="line"/>
      <point x="185" y="730"/>
      <point x="184" y="659" type="qcurve"/>
      <point x="257" y="658" type="line" smooth="yes"/>
      <point x="332" y="656"/>
      <point x="338" y="662" type="qcurve" smooth="yes"/>
      <point x="344" y="668"/>
      <point x="348" y="734" type="qcurve" smooth="yes"/>
      <point x="351" y="800" type="line"/>
      <point x="415" y="800" type="line"/>
      <point x="413" y="733"/>
      <point x="411" y="666" type="qcurve"/>
      <point x="463" y="663"/>
      <point x="516" y="659" type="qcurve"/>
      <point x="518" y="635" type="line" smooth="yes"/>
      <point x="520" y="629"/>
      <point x="517" y="619"/>
      <point x="518" y="613"/>
      <point x="509" y="607"/>
      <point x="503" y="604"/>
      <point x="485" y="601"/>
      <point x="468" y="599"/>
      <point x="452" y="598" type="qcurve" smooth="yes"/>
      <point x="405" y="594" type="line"/>
      <point x="405" y="476" type="line"/>
      <point x="450" y="475" type="line" smooth="yes"/>
      <point x="491" y="473"/>
      <point x="513" y="458"/>
      <point x="511" y="435" type="qcurve" smooth="yes"/>
      <point x="509" y="411" type="line"/>
      <point x="454" y="408"/>
      <point x="398" y="405" type="qcurve"/>
      <point x="393" y="346" type="line" smooth="yes"/>
      <point x="388" y="288"/>
      <point x="379" y="270"/>
      <point x="358" y="272" type="qcurve" smooth="yes"/>
      <point x="358" y="272"/>
      <point x="357" y="272" type="qcurve" smooth="yes"/>
      <point x="333" y="274" type="line"/>
      <point x="329" y="339"/>
      <point x="326" y="405" type="qcurve"/>
      <point x="252" y="407" type="line" smooth="yes"/>
      <point x="207" y="408"/>
      <point x="178" y="405"/>
      <point x="175" y="399" type="qcurve" smooth="yes"/>
      <point x="171" y="387"/>
      <point x="167" y="331" type="qcurve" smooth="yes"/>
      <point x="163" y="274" type="line"/>
      <point x="110" y="274" type="line"/>
      <point x="107" y="339"/>
      <point x="104" y="405" type="qcurve"/>
      <point x="58" y="408"/>
      <point x="12" y="411" type="qcurve"/>
      <point x="10" y="435" type="line" smooth="yes"/>
      <point x="8" y="458"/>
      <point x="30" y="473"/>
      <point x="68" y="475" type="qcurve" smooth="yes"/>
      <point x="110" y="476" type="line"/>
      <point x="110" y="588" type="line"/>
      <point x="74" y="586" type="line" smooth="yes"/>
      <point x="42" y="584"/>
      <point x="21" y="600"/>
      <point x="23" y="625" type="qcurve" smooth="yes"/>
      <point x="25" y="646" type="line"/>
      <point x="71" y="650"/>
      <point x="117" y="653" type="qcurve"/>
      <point x="118" y="692" type="line" smooth="yes"/>
      <point x="122" y="748"/>
    </contour>
    <contour>
      <point x="337" y="539" type="qcurve" smooth="yes"/>
      <point x="339" y="594" type="line"/>
      <point x="316" y="595" type="line" smooth="yes"/>
      <point x="289" y="595"/>
      <point x="238" y="592" type="qcurve" smooth="yes"/>
      <point x="182" y="588" type="line"/>
      <point x="178" y="535" type="line" smooth="yes"/>
      <point x="174" y="482"/>
      <point x="177" y="478" type="qcurve" smooth="yes"/>
      <point x="179" y="473"/>
      <point x="329" y="473"/>
      <point x="331" y="478" type="qcurve" smooth="yes"/>
      <point x="334" y="482"/>
    </contour>
  </outline>
</glyph>
<glyph name="dollar" format="2">
  <advance width="402"/>
  <unicode hex="0024"/>
  <outline>
    <contour>
      <point x="170" y="787" type="qcurve" smooth="yes"/>
      <point x="174" y="801"/>
      <point x="229" y="801"/>
      <point x="233" y="787" type="qcurve" smooth="yes"/>
      <point x="235" y="778"/>
      <point x="260" y="774"/>
      <point x="313" y="773" type="qcurve" smooth="yes"/>
      <point x="391" y="771" type="line"/>
      <point x="393" y="748" type="line" smooth="yes"/>
      <point x="395" y="727"/>
      <point x="381" y="713"/>
      <point x="308" y="709" type="qcurve" smooth="yes"/>
      <point x="234" y="705" type="line"/>
      <point x="232" y="634" type="line" smooth="yes"/>
      <point x="230" y="563"/>
      <point x="237" y="556" type="qcurve" smooth="yes"/>
      <point x="243" y="550"/>
      <point x="315" y="545" type="qcurve" smooth="yes"/>
      <point x="384" y="542" type="line"/>
      <point x="383" y="412" type="line" smooth="yes"/>
      <point x="381" y="281"/>
      <point x="374" y="273" type="qcurve" smooth="yes"/>
      <point x="367" y="265"/>
      <point x="298" y="263" type="qcurve" smooth="yes"/>
      <point x="228" y="261" type="line"/>
      <point x="224" y="231" type="line" smooth="yes"/>
      <point x="222" y="210"/>
      <point x="214" y="201"/>
      <point x="198" y="200" type="qcurve" smooth="yes"/>
      <point x="159" y="196"/>
      <point x="159" y="239" type="qcurve" smooth="yes"/>
      <point x="159" y="258" type="line"/>
      <point x="109" y="258" type="line" smooth="yes"/>
      <point x="52" y="259"/>
      <point x="25" y="270"/>
      <point x="25" y="293" type="qcurve" smooth="yes"/>
      <point x="25" y="320" type="line"/>
      <point x="94" y="323"/>
      <point x="162" y="326" type="qcurve"/>
      <point x="162" y="483" type="line"/>
      <point x="98" y="485" type="line" smooth="yes"/>
      <point x="33" y="486"/>
      <point x="24" y="493" type="qcurve" smooth="yes"/>
      <point x="15" y="501"/>
      <point x="7" y="754"/>
      <point x="23" y="774"/>
      <point x="95" y="774" type="qcurve" smooth="yes"/>
      <point x="144" y="774"/>
      <point x="168" y="778"/>
    </contour>
    <contour>
      <point x="162" y="555" type="line"/>
      <point x="164" y="632"/>
      <point x="166" y="708" type="qcurve"/>
      <point x="123" y="708" type="line" smooth="yes"/>
      <point x="80" y="708"/>
      <point x="77" y="700" type="qcurve" smooth="yes"/>
      <point x="74" y="691"/>
      <point x="75" y="623" type="qcurve" smooth="yes"/>
      <point x="77" y="555" type="line"/>
    </contour>
    <contour>
      <point x="319" y="326" type="line"/>
      <point x="321" y="406"/>
      <point x="323" y="486" type="qcurve"/>
      <point x="280" y="486" type="line" smooth="yes"/>
      <point x="254" y="486"/>
      <point x="235" y="482"/>
      <point x="232" y="475" type="qcurve" smooth="yes"/>
      <point x="228" y="464"/>
      <point x="228" y="395" type="qcurve" smooth="yes"/>
      <point x="228" y="326" type="line"/>
    </contour>
  </outline>
</glyph>
<glyph name="percent" format="2">
  <advance width="603"/>
  <unicode hex="0025"/>
  <outline>
    <contour>
      <point x="12" y="792" type="qcurve" smooth="yes"/>
      <point x="15" y="800"/>
      <point x="123" y="800" type="qcurve" smooth="yes"/>
      <point x="231" y="800" type="line"/>
      <point x="231" y="686" type="line" smooth="yes"/>
      <point x="231" y="571"/>
      <point x="225" y="555" type="qcurve" smooth="yes"/>
      <point x="218" y="538" type="line"/>
      <point x="115" y="540"/>
      <point x="12" y="542" type="qcurve"/>
      <point x="10" y="663" type="line" smooth="yes"/>
      <point x="9" y="783"/>
    </contour>
    <contour>
      <point x="167" y="682" type="qcurve" smooth="yes"/>
      <point x="169" y="751" type="line"/>
      <point x="136" y="752" type="line" smooth="yes"/>
      <point x="134" y="752"/>
      <point x="129" y="752" type="qcurve" smooth="yes"/>
      <point x="116" y="752"/>
      <point x="105" y="753"/>
      <point x="89" y="750"/>
      <point x="85" y="749"/>
      <point x="77" y="740"/>
      <point x="76" y="734"/>
      <point x="74" y="714"/>
      <point x="75" y="700"/>
      <point x="75" y="683" type="qcurve" smooth="yes"/>
      <point x="76" y="677"/>
      <point x="76" y="674" type="qcurve" smooth="yes"/>
      <point x="78" y="601" type="line"/>
      <point x="116" y="602" type="line" smooth="yes"/>
      <point x="155" y="603"/>
      <point x="160" y="608" type="qcurve" smooth="yes"/>
      <point x="165" y="613"/>
    </contour>
    <contour>
      <point x="470" y="782" type="qcurve" smooth="yes"/>
      <point x="481" y="795"/>
      <point x="501" y="800"/>
      <point x="535" y="800" type="qcurve" smooth="yes"/>
      <point x="584" y="800"/>
      <point x="584" y="795" type="qcurve" smooth="yes"/>
      <point x="584" y="789"/>
      <point x="566" y="773" type="qcurve" smooth="yes"/>
      <point x="555" y="762"/>
      <point x="516" y="721"/>
      <point x="471" y="671"/>
      <point x="463" y="663" type="qcurve" smooth="yes"/>
      <point x="461" y="660"/>
      <point x="168" y="334"/>
      <point x="145" y="308" type="qcurve" smooth="yes"/>
      <point x="113" y="272"/>
      <point x="92" y="257"/>
      <point x="58" y="260"/>
      <point x="51" y="268"/>
      <point x="49" y="287" type="qcurve" smooth="yes"/>
      <point x="48" y="305"/>
      <point x="62" y="329"/>
      <point x="95" y="366" type="qcurve" smooth="yes"/>
      <point x="100" y="371"/>
      <point x="404" y="710"/>
      <point x="429" y="737" type="qcurve" smooth="yes"/>
      <point x="470" y="782"/>
    </contour>
    <contour>
      <point x="390" y="534" type="qcurve" smooth="yes"/>
      <point x="403" y="537"/>
      <point x="499" y="536" type="qcurve" smooth="yes"/>
      <point x="594" y="535" type="line"/>
      <point x="592" y="427" type="line" smooth="yes"/>
      <point x="591" y="324"/>
      <point x="585" y="290" type="qcurve" smooth="yes"/>
      <point x="580" y="261" type="line"/>
      <point x="479" y="261" type="line" smooth="yes"/>
      <point x="377" y="261"/>
      <point x="365" y="271" type="qcurve" smooth="yes"/>
      <point x="357" y="277"/>
      <point x="355" y="317"/>
      <point x="359" y="398" type="qcurve" smooth="yes"/>
      <point x="363" y="516"/>
      <point x="370" y="524" type="qcurve" smooth="yes"/>
      <point x="377" y="532"/>
    </contour>
    <contour>
      <point x="531" y="434" type="qcurve" smooth="yes"/>
      <point x="529" y="470" type="line"/>
      <point x="478" y="472" type="line" smooth="yes"/>
      <point x="427" y="474"/>
      <point x="423" y="465" type="qcurve" smooth="yes"/>
      <point x="421" y="456"/>
      <point x="422" y="391" type="qcurve" smooth="yes"/>
      <point x="424" y="326" type="line"/>
      <point x="522" y="326" type="line"/>
      <point x="527" y="362" type="line" smooth="yes"/>
      <point x="532" y="396"/>
    </contour>
  </outline>
</glyph>
<glyph name="parenleft" format="2">
  <advance width="292"/>
  <unicode hex="0028"/>
  <outline>
    <contour>
      <point x="46" y="773" type="qcurve" smooth="yes"/>
      <point x="50" y="800" type="line"/>
      <point x="167" y="800" type="line" smooth="yes"/>
      <point x="277" y="800"/>
      <point x="282" y="794" type="qcurve" smooth="yes"/>
      <point x="284" y="792"/>
      <point x="283" y="789" type="qcurve" smooth="yes"/>
      <point x="282" y="785"/>
      <point x="277" y="780"/>
      <point x="256" y="777"/>
      <point x="227" y="776"/>
      <point x="197" y="775" type="qcurve" smooth="yes"/>
      <point x="114" y="773"/>
      <point x="111" y="765" type="qcurve" smooth="yes"/>
      <point x="107" y="755"/>
      <point x="76" y="183"/>
      <point x="79" y="178" type="qcurve" smooth="yes"/>
      <point x="82" y="173"/>
      <point x="146" y="173" type="qcurve" smooth="yes"/>
      <point x="201" y="173"/>
      <point x="227" y="159"/>
      <point x="224" y="132" type="qcurve" smooth="yes"/>
      <point x="222" y="110" type="line"/>
      <point x="125" y="108" type="line" smooth="yes"/>
      <point x="28" y="107"/>
      <point x="18" y="115" type="qcurve" smooth="yes"/>
      <point x="12" y="120"/>
      <point x="9" y="148"/>
      <point x="12" y="189" type="qcurve" smooth="yes"/>
      <point x="12" y="196"/>
      <point x="43" y="743"/>
    </contour>
  </outline>
</glyph>
<glyph name="parenright" format="2">
  <advance width="261"/>
  <unicode hex="0029"/>
  <outline>
    <contour>
      <point x="50" y="789" type="qcurve" smooth="yes"/>
      <point x="48" y="796"/>
      <point x="58" y="798" type="qcurve" smooth="yes"/>
      <point x="71" y="800"/>
      <point x="150" y="800" type="qcurve" smooth="yes"/>
      <point x="252" y="800" type="line"/>
      <point x="248" y="737" type="line" smooth="yes"/>
      <point x="242" y="630"/>
      <point x="231" y="392" type="qcurve" smooth="yes"/>
      <point x="223" y="208"/>
      <point x="214" y="107"/>
      <point x="207" y="102" type="qcurve" smooth="yes"/>
      <point x="196" y="93"/>
      <point x="107" y="97" type="qcurve" smooth="yes"/>
      <point x="18" y="102"/>
      <point x="14" y="107" type="qcurve" smooth="yes"/>
      <point x="8" y="112"/>
      <point x="11" y="134" type="qcurve" smooth="yes"/>
      <point x="12" y="156" type="line"/>
      <point x="84" y="159"/>
      <point x="156" y="163" type="qcurve"/>
      <point x="158" y="186" type="line" smooth="yes"/>
      <point x="164" y="274"/>
      <point x="183" y="766"/>
      <point x="180" y="769" type="qcurve" smooth="yes"/>
      <point x="176" y="773"/>
      <point x="114" y="775" type="qcurve" smooth="yes"/>
      <point x="74" y="777"/>
      <point x="51" y="782"/>
    </contour>
  </outline>
</glyph>
<glyph name="asterisk" format="2">
  <advance width="339"/>
  <unicode hex="002A"/>
  <outline>
    <contour>
      <point x="144" y="762" type="qcurve" smooth="yes"/>
      <point x="144" y="800" type="line"/>
      <point x="209" y="800" type="line"/>
      <point x="209" y="765" type="line" smooth="yes"/>
      <point x="209" y="731"/>
      <point x="213" y="726" type="qcurve" smooth="yes"/>
      <point x="218" y="722"/>
      <point x="250" y="739" type="qcurve" smooth="yes"/>
      <point x="282" y="755"/>
      <point x="306" y="753" type="qcurve" smooth="yes"/>
      <point x="324" y="751"/>
      <point x="330" y="744"/>
      <point x="330" y="725" type="qcurve" smooth="yes"/>
      <point x="330" y="706"/>
      <point x="320" y="694"/>
      <point x="296" y="680" type="qcurve" smooth="yes"/>
      <point x="262" y="661"/>
      <point x="262" y="658" type="qcurve" smooth="yes"/>
      <point x="262" y="653"/>
      <point x="293" y="637" type="qcurve" smooth="yes"/>
      <point x="309" y="628"/>
      <point x="320" y="619"/>
      <point x="324" y="607"/>
      <point x="324" y="594" type="qcurve" smooth="yes"/>
      <point x="324" y="575"/>
      <point x="317" y="567"/>
      <point x="300" y="566" type="qcurve" smooth="yes"/>
      <point x="277" y="564"/>
      <point x="249" y="577" type="qcurve" smooth="yes"/>
      <point x="224" y="591"/>
      <point x="216" y="591" type="qcurve" smooth="yes"/>
      <point x="209" y="591"/>
      <point x="209" y="559" type="qcurve" smooth="yes"/>
      <point x="209" y="531"/>
      <point x="192" y="511"/>
      <point x="169" y="514" type="qcurve" smooth="yes"/>
      <point x="147" y="516" type="line"/>
      <point x="145" y="557" type="line" smooth="yes"/>
      <point x="143" y="597"/>
      <point x="137" y="597" type="qcurve" smooth="yes"/>
      <point x="129" y="597"/>
      <point x="104" y="584" type="qcurve" smooth="yes"/>
      <point x="77" y="570"/>
      <point x="54" y="573" type="qcurve" smooth="yes"/>
      <point x="36" y="574"/>
      <point x="30" y="582"/>
      <point x="30" y="601" type="qcurve" smooth="yes"/>
      <point x="30" y="618"/>
      <point x="38" y="631"/>
      <point x="54" y="640" type="qcurve" smooth="yes"/>
      <point x="79" y="653"/>
      <point x="79" y="658" type="qcurve" smooth="yes"/>
      <point x="79" y="661"/>
      <point x="45" y="680" type="qcurve" smooth="yes"/>
      <point x="27" y="690"/>
      <point x="14" y="700"/>
      <point x="10" y="711"/>
      <point x="10" y="725" type="qcurve" smooth="yes"/>
      <point x="10" y="744"/>
      <point x="17" y="751"/>
      <point x="34" y="753" type="qcurve" smooth="yes"/>
      <point x="59" y="755"/>
      <point x="97" y="735" type="qcurve" smooth="yes"/>
      <point x="135" y="716"/>
      <point x="140" y="720" type="qcurve" smooth="yes"/>
      <point x="144" y="725"/>
    </contour>
  </outline>
</glyph>
<glyph name="plus" format="2">
  <advance width="398"/>
  <unicode hex="002B"/>
  <outline>
    <contour>
      <point x="192" y="733" type="qcurve" smooth="yes"/>
      <point x="198" y="742"/>
      <point x="221" y="740" type="qcurve" smooth="yes"/>
      <point x="245" y="738" type="line"/>
      <point x="249" y="653"/>
      <point x="252" y="568" type="qcurve"/>
      <point x="320" y="565"/>
      <point x="389" y="561" type="qcurve"/>
      <point x="389" y="509" type="line"/>
      <point x="324" y="507" type="line" smooth="yes"/>
      <point x="259" y="506"/>
      <point x="252" y="499" type="qcurve" smooth="yes"/>
      <point x="246" y="493"/>
      <point x="243" y="420" type="qcurve" smooth="yes"/>
      <point x="239" y="346" type="line"/>
      <point x="186" y="346" type="line"/>
      <point x="183" y="424"/>
      <point x="180" y="503" type="qcurve"/>
      <point x="95" y="506"/>
      <point x="10" y="509" type="qcurve"/>
      <point x="10" y="561" type="line"/>
      <point x="95" y="565"/>
      <point x="180" y="568" type="qcurve"/>
      <point x="183" y="646" type="line" smooth="yes"/>
      <point x="187" y="725"/>
    </contour>
  </outline>
</glyph>
<glyph name="comma" format="2">
  <advance width="73"/>
  <unicode hex="002C"/>
  <outline>
    <contour>
      <point x="12" y="328" type="qcurve" smooth="yes"/>
      <point x="15" y="337"/>
      <point x="40" y="335" type="qcurve" smooth="yes"/>
      <point x="64" y="333" type="line"/>
      <point x="64" y="150" type="line"/>
      <point x="12" y="150" type="line"/>
      <point x="10" y="234" type="line" smooth="yes"/>
      <point x="9" y="320"/>
    </contour>
  </outline>
</glyph>
<glyph name="hyphen" format="2">
  <advance width="228"/>
  <unicode hex="002D"/>
  <outline>
    <contour>
      <point x="15" y="489" type="qcurve" smooth="yes"/>
      <point x="20" y="493"/>
      <point x="118" y="492" type="qcurve" smooth="yes"/>
      <point x="216" y="490" type="line"/>
      <point x="218" y="467" type="line" smooth="yes"/>
      <point x="221" y="441"/>
      <point x="187" y="427"/>
      <point x="116" y="427" type="qcurve" smooth="yes"/>
      <point x="37" y="427"/>
      <point x="23" y="434" type="qcurve" smooth="yes"/>
      <point x="14" y="439"/>
      <point x="8" y="481"/>
    </contour>
  </outline>
</glyph>
<glyph name="period" format="2">
  <advance width="80"/>
  <unicode hex="002E"/>
  <outline>
    <contour>
      <point x="11" y="286" type="qcurve" smooth="yes"/>
      <point x="8" y="309"/>
      <point x="19" y="323"/>
      <point x="43" y="322" type="qcurve" smooth="yes"/>
      <point x="56" y="321"/>
      <point x="64" y="320"/>
      <point x="71" y="313"/>
      <point x="71" y="305"/>
      <point x="71" y="293" type="qcurve" smooth="yes"/>
      <point x="71" y="267" type="line"/>
      <point x="42" y="267" type="line" smooth="yes"/>
      <point x="22" y="267"/>
      <point x="12" y="273"/>
    </contour>
  </outline>
</glyph>
<glyph name="slash" format="2">
  <advance width="371"/>
  <unicode hex="002F"/>
  <outline>
    <contour>
      <point x="271" y="769" type="qcurve" smooth="yes"/>
      <point x="286" y="800" type="line"/>
      <point x="324" y="800" type="line" smooth="yes"/>
      <point x="339" y="800"/>
      <point x="355" y="798"/>
      <point x="362" y="794"/>
      <point x="362" y="790" type="qcurve" smooth="yes"/>
      <point x="362" y="770"/>
      <point x="215" y="519" type="qcurve" smooth="yes"/>
      <point x="193" y="482"/>
      <point x="173" y="444" type="qcurve" smooth="yes"/>
      <point x="150" y="402"/>
      <point x="112" y="333" type="qcurve" smooth="yes"/>
      <point x="71" y="261" type="line"/>
      <point x="42" y="261" type="line" smooth="yes"/>
      <point x="21" y="261"/>
      <point x="12" y="267"/>
      <point x="10" y="280" type="qcurve" smooth="yes"/>
      <point x="9" y="295"/>
      <point x="44" y="365"/>
      <point x="125" y="508" type="qcurve" smooth="yes"/>
      <point x="141" y="536"/>
      <point x="200" y="644"/>
      <point x="225" y="686" type="qcurve" smooth="yes"/>
      <point x="253" y="732"/>
    </contour>
  </outline>
</glyph>
<glyph name="zero" format="2">
  <advance width="382"/>
  <unicode hex="0030"/>
  <outline>
    <contour>
      <point x="373" y="779" type="line" smooth="yes"/>
      <point x="373" y="766"/>
      <point x="353" y="329"/>
      <point x="353" y="316" type="qcurve" smooth="yes"/>
      <point x="353" y="314"/>
      <point x="353" y="310" type="qcurve" smooth="yes"/>
      <point x="353" y="271"/>
      <point x="313" y="257"/>
      <point x="194" y="254" type="qcurve" smooth="yes"/>
      <point x="184" y="254"/>
      <point x="178" y="254" type="qcurve" smooth="yes"/>
      <point x="20" y="249" type="line"/>
      <point x="14" y="265" type="line" smooth="yes"/>
      <point x="8" y="280"/>
      <point x="11" y="541" type="qcurve" smooth="yes"/>
      <point x="15" y="800" type="line"/>
      <point x="373" y="800" type="line"/>
    </contour>
    <contour>
      <point x="305" y="746" type="qcurve" smooth="yes"/>
      <point x="301" y="755"/>
      <point x="85" y="755"/>
      <point x="82" y="746" type="qcurve" smooth="yes"/>
      <point x="78" y="739"/>
      <point x="77" y="529" type="qcurve" smooth="yes"/>
      <point x="75" y="320" type="line"/>
      <point x="176" y="318" type="line" smooth="yes"/>
      <point x="277" y="316"/>
      <point x="283" y="322" type="qcurve" smooth="yes"/>
      <point x="288" y="327"/>
      <point x="308" y="735"/>
    </contour>
  </outline>
</glyph>
<glyph name="one" format="2">
  <advance width="259"/>
  <unicode hex="0031"/>
  <outline>
    <contour>
      <point x="12" y="791" type="qcurve" smooth="yes"/>
      <point x="14" y="796"/>
      <point x="61" y="800"/>
      <point x="130" y="800" type="qcurve" smooth="yes"/>
      <point x="206" y="800"/>
      <point x="246" y="796"/>
      <point x="249" y="789" type="qcurve" smooth="yes"/>
      <point x="253" y="779"/>
      <point x="230" y="283"/>
      <point x="225" y="264" type="qcurve" smooth="yes"/>
      <point x="223" y="254"/>
      <point x="211" y="247"/>
      <point x="197" y="246" type="qcurve" smooth="yes"/>
      <point x="172" y="244"/>
      <point x="169" y="254" type="qcurve" smooth="yes"/>
      <point x="164" y="264"/>
      <point x="176" y="493" type="qcurve" smooth="yes"/>
      <point x="187" y="724"/>
      <point x="183" y="731" type="qcurve" smooth="yes"/>
      <point x="180" y="741"/>
      <point x="96" y="742" type="qcurve" smooth="yes"/>
      <point x="13" y="744" type="line"/>
      <point x="11" y="763" type="line" smooth="yes"/>
      <point x="8" y="781"/>
    </contour>
  </outline>
</glyph>
<glyph name="two" format="2">
  <advance width="398"/>
  <unicode hex="0032"/>
  <outline>
    <contour>
      <point x="30" y="784" type="qcurve" smooth="yes"/>
      <point x="30" y="800" type="line"/>
      <point x="389" y="800" type="line"/>
      <point x="389" y="782" type="line" smooth="yes"/>
      <point x="389" y="730"/>
      <point x="372" y="545"/>
      <point x="368" y="541" type="qcurve" smooth="yes"/>
      <point x="360" y="533"/>
      <point x="226" y="518" type="qcurve" smooth="yes"/>
      <point x="93" y="505"/>
      <point x="87" y="501" type="qcurve" smooth="yes"/>
      <point x="83" y="495"/>
      <point x="81" y="401" type="qcurve" smooth="yes"/>
      <point x="79" y="307" type="line"/>
      <point x="210" y="308" type="line" smooth="yes"/>
      <point x="320" y="310"/>
      <point x="358" y="300"/>
      <point x="355" y="269" type="qcurve" smooth="yes"/>
      <point x="353" y="248" type="line"/>
      <point x="197" y="243" type="line" smooth="yes"/>
      <point x="39" y="240"/>
      <point x="25" y="245" type="qcurve" smooth="yes"/>
      <point x="15" y="249"/>
      <point x="10" y="262"/>
      <point x="10" y="285" type="qcurve" smooth="yes"/>
      <point x="10" y="343"/>
      <point x="27" y="551"/>
      <point x="32" y="556" type="qcurve" smooth="yes"/>
      <point x="40" y="564"/>
      <point x="173" y="578" type="qcurve" smooth="yes"/>
      <point x="308" y="592"/>
      <point x="311" y="596" type="qcurve" smooth="yes"/>
      <point x="316" y="601"/>
      <point x="320" y="678" type="qcurve" smooth="yes"/>
      <point x="324" y="754" type="line"/>
      <point x="277" y="755" type="line" smooth="yes"/>
      <point x="264" y="755"/>
      <point x="137" y="757" type="qcurve" smooth="yes"/>
      <point x="47" y="757"/>
      <point x="38" y="763" type="qcurve" smooth="yes"/>
      <point x="30" y="769"/>
    </contour>
  </outline>
</glyph>
<glyph name="three" format="2">
  <advance width="362"/>
  <unicode hex="0033"/>
  <outline>
    <contour>
      <point x="31" y="789" type="qcurve" smooth="yes"/>
      <point x="36" y="794"/>
      <point x="330" y="792"/>
      <point x="341" y="787" type="qcurve" smooth="yes"/>
      <point x="353" y="781"/>
      <point x="353" y="681"/>
      <point x="339" y="476" type="qcurve" smooth="yes"/>
      <point x="325" y="260"/>
      <point x="317" y="252" type="qcurve" smooth="yes"/>
      <point x="309" y="243"/>
      <point x="160" y="242" type="qcurve" smooth="yes"/>
      <point x="10" y="241" type="line"/>
      <point x="10" y="267" type="line" smooth="yes"/>
      <point x="10" y="292"/>
      <point x="48" y="302"/>
      <point x="149" y="303" type="qcurve" smooth="yes"/>
      <point x="219" y="303"/>
      <point x="257" y="307"/>
      <point x="261" y="315" type="qcurve" smooth="yes"/>
      <point x="267" y="326"/>
      <point x="269" y="411" type="qcurve" smooth="yes"/>
      <point x="271" y="496" type="line"/>
      <point x="180" y="499"/>
      <point x="88" y="503" type="qcurve"/>
      <point x="88" y="561" type="line"/>
      <point x="278" y="561" type="line"/>
      <point x="283" y="597" type="line" smooth="yes"/>
      <point x="287" y="632"/>
      <point x="288" y="679" type="qcurve" smooth="yes"/>
      <point x="290" y="725" type="line"/>
      <point x="166" y="729" type="line" smooth="yes"/>
      <point x="42" y="732"/>
      <point x="34" y="737" type="qcurve" smooth="yes"/>
      <point x="28" y="741"/>
      <point x="25" y="783"/>
    </contour>
  </outline>
</glyph>
<glyph name="four" format="2">
  <advance width="362"/>
  <unicode hex="0034"/>
  <outline>
    <contour>
      <point x="28" y="781" type="qcurve" smooth="yes"/>
      <point x="37" y="785"/>
      <point x="56" y="784" type="qcurve" smooth="yes"/>
      <point x="77" y="784" type="line"/>
      <point x="77" y="457" type="line"/>
      <point x="148" y="459" type="line" smooth="yes"/>
      <point x="224" y="462"/>
      <point x="249" y="466" type="qcurve" smooth="yes"/>
      <point x="279" y="470" type="line"/>
      <point x="285" y="594" type="line" smooth="yes"/>
      <point x="289" y="716"/>
      <point x="294" y="751" type="qcurve" smooth="yes"/>
      <point x="298" y="775"/>
      <point x="306" y="784"/>
      <point x="324" y="786" type="qcurve" smooth="yes"/>
      <point x="348" y="787"/>
      <point x="352" y="776" type="qcurve" smooth="yes"/>
      <point x="357" y="765"/>
      <point x="334" y="254"/>
      <point x="329" y="249" type="qcurve" smooth="yes"/>
      <point x="323" y="243"/>
      <point x="302" y="246" type="qcurve" smooth="yes"/>
      <point x="279" y="248" type="line"/>
      <point x="277" y="320" type="line" smooth="yes"/>
      <point x="276" y="391"/>
      <point x="271" y="396" type="qcurve" smooth="yes"/>
      <point x="265" y="402"/>
      <point x="143" y="393" type="qcurve" smooth="yes"/>
      <point x="21" y="386"/>
      <point x="13" y="393" type="qcurve" smooth="yes"/>
      <point x="6" y="401"/>
      <point x="20" y="776"/>
    </contour>
  </outline>
</glyph>
<glyph name="five" format="2">
  <advance width="371"/>
  <unicode hex="0035"/>
  <outline>
    <contour>
      <point x="147" y="787" type="line" smooth="yes"/>
      <point x="176" y="788"/>
      <point x="286" y="792"/>
      <point x="298" y="792" type="qcurve" smooth="yes"/>
      <point x="337" y="794"/>
      <point x="364" y="778"/>
      <point x="361" y="754" type="qcurve" smooth="yes"/>
      <point x="359" y="731" type="line"/>
      <point x="228" y="728"/>
      <point x="98" y="725" type="qcurve"/>
      <point x="98" y="673" type="line"/>
      <point x="219" y="669" type="line" smooth="yes"/>
      <point x="341" y="666"/>
      <point x="352" y="657" type="qcurve" smooth="yes"/>
      <point x="359" y="650"/>
      <point x="361" y="586"/>
      <point x="358" y="454" type="qcurve" smooth="yes"/>
      <point x="354" y="261"/>
      <point x="347" y="253" type="qcurve" smooth="yes"/>
      <point x="341" y="244"/>
      <point x="187" y="244" type="qcurve" smooth="yes"/>
      <point x="56" y="244"/>
      <point x="8" y="255"/>
      <point x="11" y="284" type="qcurve" smooth="yes"/>
      <point x="13" y="307" type="line"/>
      <point x="287" y="307" type="line"/>
      <point x="292" y="385" type="line" smooth="yes"/>
      <point x="297" y="460"/>
      <point x="296" y="532" type="qcurve" smooth="yes"/>
      <point x="294" y="601" type="line"/>
      <point x="170" y="604" type="line" smooth="yes"/>
      <point x="45" y="608"/>
      <point x="38" y="612" type="qcurve" smooth="yes"/>
      <point x="31" y="617"/>
      <point x="29" y="700"/>
      <point x="34" y="748" type="qcurve" smooth="yes"/>
      <point x="39" y="784" type="line"/>
    </contour>
  </outline>
</glyph>
<glyph name="six" format="2">
  <advance width="394"/>
  <unicode hex="0036"/>
  <outline>
    <contour>
      <point x="34" y="782" type="qcurve" smooth="yes"/>
      <point x="38" y="790"/>
      <point x="93" y="793"/>
      <point x="212" y="792" type="qcurve" smooth="yes"/>
      <point x="383" y="790" type="line"/>
      <point x="385" y="767" type="line" smooth="yes"/>
      <point x="388" y="739"/>
      <point x="343" y="728"/>
      <point x="231" y="728" type="qcurve" smooth="yes"/>
      <point x="144" y="728"/>
      <point x="97" y="725"/>
      <point x="94" y="718" type="qcurve" smooth="yes"/>
      <point x="89" y="704"/>
      <point x="89" y="637" type="qcurve" smooth="yes"/>
      <point x="89" y="568" type="line"/>
      <point x="217" y="565" type="line" smooth="yes"/>
      <point x="346" y="562"/>
      <point x="354" y="554" type="qcurve" smooth="yes"/>
      <point x="361" y="546"/>
      <point x="357" y="259"/>
      <point x="349" y="251" type="qcurve" smooth="yes"/>
      <point x="342" y="244"/>
      <point x="185" y="246" type="qcurve" smooth="yes"/>
      <point x="89" y="247"/>
      <point x="23" y="252"/>
      <point x="17" y="258" type="qcurve" smooth="yes"/>
      <point x="11" y="264"/>
      <point x="9" y="314"/>
      <point x="14" y="401" type="qcurve" smooth="yes"/>
      <point x="17" y="477"/>
      <point x="24" y="653" type="qcurve" smooth="yes"/>
      <point x="29" y="771"/>
    </contour>
    <contour>
      <point x="295" y="405" type="qcurve" smooth="yes"/>
      <point x="296" y="496" type="line"/>
      <point x="191" y="498" type="line" smooth="yes"/>
      <point x="86" y="499"/>
      <point x="83" y="495" type="qcurve" smooth="yes"/>
      <point x="81" y="490"/>
      <point x="78" y="401" type="qcurve" smooth="yes"/>
      <point x="76" y="313" type="line"/>
      <point x="180" y="309" type="line" smooth="yes"/>
      <point x="285" y="304"/>
      <point x="289" y="309" type="qcurve" smooth="yes"/>
      <point x="294" y="313"/>
    </contour>
  </outline>
</glyph>
<glyph name="seven" format="2">
  <advance width="390"/>
  <unicode hex="0037"/>
  <outline>
    <contour>
      <point x="10" y="777" type="qcurve" smooth="yes"/>
      <point x="10" y="800" type="line"/>
      <point x="193" y="800" type="line" smooth="yes"/>
      <point x="317" y="800"/>
      <point x="378" y="796"/>
      <point x="381" y="789" type="qcurve" smooth="yes"/>
      <point x="383" y="784"/>
      <point x="374" y="613"/>
      <point x="361" y="413"/>
      <point x="347" y="245"/>
      <point x="344" y="242" type="qcurve" smooth="yes"/>
      <point x="338" y="237"/>
      <point x="317" y="239" type="qcurve" smooth="yes"/>
      <point x="294" y="241" type="line"/>
      <point x="294" y="310" type="line" smooth="yes"/>
      <point x="294" y="384"/>
      <point x="298" y="441" type="qcurve" smooth="yes"/>
      <point x="301" y="503" type="line"/>
      <point x="252" y="506"/>
      <point x="203" y="509" type="qcurve"/>
      <point x="203" y="561" type="line"/>
      <point x="255" y="565"/>
      <point x="307" y="568" type="qcurve"/>
      <point x="313" y="645" type="line" smooth="yes"/>
      <point x="318" y="722"/>
      <point x="315" y="732" type="qcurve" smooth="yes"/>
      <point x="313" y="737"/>
      <point x="258" y="741"/>
      <point x="177" y="741" type="qcurve" smooth="yes"/>
      <point x="42" y="741"/>
      <point x="27" y="748" type="qcurve" smooth="yes"/>
      <point x="17" y="752"/>
      <point x="10" y="763"/>
    </contour>
  </outline>
</glyph>
<glyph name="eight" format="2">
  <advance width="438"/>
  <unicode hex="0038"/>
  <outline>
    <contour>
      <point x="92" y="791" type="qcurve" smooth="yes"/>
      <point x="104" y="800"/>
      <point x="237" y="800" type="qcurve" smooth="yes"/>
      <point x="370" y="800" type="line"/>
      <point x="371" y="694" type="line"/>
      <point x="373" y="588" type="line"/>
      <point x="393" y="584" type="line" smooth="yes"/>
      <point x="405" y="582"/>
      <point x="418" y="569"/>
      <point x="426" y="525"/>
      <point x="428" y="456"/>
      <point x="428" y="390" type="qcurve" smooth="yes"/>
      <point x="429" y="244" type="line"/>
      <point x="412" y="238" type="line" smooth="yes"/>
      <point x="395" y="232"/>
      <point x="44" y="232"/>
      <point x="27" y="238" type="qcurve" smooth="yes"/>
      <point x="10" y="244" type="line"/>
      <point x="15" y="390" type="line" smooth="yes"/>
      <point x="18" y="535"/>
      <point x="23" y="558" type="qcurve" smooth="yes"/>
      <point x="26" y="575"/>
      <point x="36" y="582"/>
      <point x="58" y="583" type="qcurve" smooth="yes"/>
      <point x="90" y="585" type="line"/>
      <point x="85" y="684" type="line" smooth="yes"/>
      <point x="82" y="752"/>
      <point x="84" y="785"/>
    </contour>
    <contour>
      <point x="305" y="673" type="qcurve" smooth="yes"/>
      <point x="308" y="751" type="line"/>
      <point x="231" y="753" type="line" smooth="yes"/>
      <point x="154" y="755"/>
      <point x="151" y="746" type="qcurve" smooth="yes"/>
      <point x="148" y="737"/>
      <point x="149" y="659" type="qcurve" smooth="yes"/>
      <point x="151" y="581" type="line"/>
      <point x="223" y="583" type="line" smooth="yes"/>
      <point x="295" y="585"/>
      <point x="299" y="590" type="qcurve" smooth="yes"/>
      <point x="304" y="595"/>
    </contour>
    <contour>
      <point x="365" y="418" type="qcurve" smooth="yes"/>
      <point x="360" y="522" type="line"/>
      <point x="341" y="523" type="line" smooth="yes"/>
      <point x="311" y="523"/>
      <point x="203" y="520" type="qcurve" smooth="yes"/>
      <point x="86" y="516" type="line"/>
      <point x="80" y="416" type="line" smooth="yes"/>
      <point x="74" y="318"/>
      <point x="78" y="307" type="qcurve" smooth="yes"/>
      <point x="81" y="300"/>
      <point x="132" y="297"/>
      <point x="223" y="297" type="qcurve" smooth="yes"/>
      <point x="364" y="297"/>
      <point x="367" y="305" type="qcurve" smooth="yes"/>
      <point x="370" y="314"/>
    </contour>
  </outline>
</glyph>
<glyph name="nine" format="2">
  <advance width="382"/>
  <unicode hex="0039"/>
  <outline>
    <contour>
      <point x="16" y="785" type="qcurve" smooth="yes"/>
      <point x="19" y="793"/>
      <point x="168" y="793" type="qcurve" smooth="yes"/>
      <point x="290" y="793"/>
      <point x="366" y="786"/>
      <point x="372" y="775" type="qcurve" smooth="yes"/>
      <point x="377" y="765"/>
      <point x="354" y="276"/>
      <point x="343" y="264"/>
      <point x="176" y="265" type="qcurve" smooth="yes"/>
      <point x="10" y="267" type="line"/>
      <point x="10" y="320" type="line"/>
      <point x="151" y="323"/>
      <point x="291" y="326" type="qcurve"/>
      <point x="296" y="388" type="line" smooth="yes"/>
      <point x="301" y="448"/>
      <point x="300" y="470" type="qcurve" smooth="yes"/>
      <point x="298" y="490" type="line"/>
      <point x="157" y="493"/>
      <point x="17" y="496" type="qcurve"/>
      <point x="15" y="637" type="line" smooth="yes"/>
      <point x="13" y="776"/>
    </contour>
    <contour>
      <point x="309" y="724" type="qcurve" smooth="yes"/>
      <point x="307" y="728"/>
      <point x="192" y="728" type="qcurve" smooth="yes"/>
      <point x="78" y="728"/>
      <point x="75" y="720" type="qcurve" smooth="yes"/>
      <point x="72" y="711"/>
      <point x="73" y="636" type="qcurve" smooth="yes"/>
      <point x="75" y="561" type="line"/>
      <point x="304" y="561" type="line"/>
      <point x="309" y="640" type="line" smooth="yes"/>
      <point x="312" y="719"/>
    </contour>
  </outline>
</glyph>
<glyph name="colon" format="2">
  <advance width="80"/>
  <unicode hex="003A"/>
  <outline>
    <contour>
      <point x="17" y="612" type="qcurve" smooth="yes"/>
      <point x="14" y="635"/>
      <point x="25" y="650"/>
      <point x="47" y="648" type="qcurve" smooth="yes"/>
      <point x="57" y="648"/>
      <point x="65" y="646"/>
      <point x="71" y="640"/>
      <point x="71" y="631"/>
      <point x="71" y="620" type="qcurve" smooth="yes"/>
      <point x="71" y="594" type="line"/>
      <point x="45" y="594" type="line" smooth="yes"/>
      <point x="28" y="594"/>
      <point x="19" y="600"/>
    </contour>
    <contour>
      <point x="11" y="279" type="qcurve" smooth="yes"/>
      <point x="8" y="302"/>
      <point x="18" y="317"/>
      <point x="40" y="315" type="qcurve" smooth="yes"/>
      <point x="58" y="314"/>
      <point x="65" y="306"/>
      <point x="65" y="287" type="qcurve" smooth="yes"/>
      <point x="65" y="261" type="line"/>
      <point x="39" y="261" type="line" smooth="yes"/>
      <point x="21" y="261"/>
      <point x="12" y="266"/>
    </contour>
  </outline>
</glyph>
<glyph name="semicolon" format="2">
  <advance width="82"/>
  <unicode hex="003B"/>
  <outline>
    <contour>
      <point x="11" y="606" type="qcurve" smooth="yes"/>
      <point x="8" y="629"/>
      <point x="19" y="643"/>
      <point x="43" y="642" type="qcurve" smooth="yes"/>
      <point x="64" y="640"/>
      <point x="71" y="633"/>
      <point x="71" y="614" type="qcurve" smooth="yes"/>
      <point x="71" y="588" type="line"/>
      <point x="42" y="588" type="line" smooth="yes"/>
      <point x="22" y="588"/>
      <point x="12" y="593"/>
    </contour>
    <contour>
      <point x="12" y="313" type="qcurve" smooth="yes"/>
      <point x="14" y="321"/>
      <point x="39" y="320" type="qcurve" smooth="yes"/>
      <point x="64" y="318"/>
      <point x="75" y="284"/>
      <point x="70" y="224" type="qcurve" smooth="yes"/>
      <point x="65" y="163" type="line"/>
      <point x="13" y="163" type="line"/>
      <point x="11" y="234" type="line" smooth="yes"/>
      <point x="9" y="308"/>
    </contour>
  </outline>
</glyph>
<glyph name="less" format="2">
  <advance width="437"/>
  <unicode hex="003C"/>
  <outline>
    <contour>
      <point x="208" y="735" type="qcurve" smooth="yes"/>
      <point x="241" y="740"/>
      <point x="334" y="739" type="qcurve" smooth="yes"/>
      <point x="425" y="738" type="line"/>
      <point x="427" y="716" type="line" smooth="yes"/>
      <point x="429" y="701"/>
      <point x="426" y="687"/>
      <point x="401" y="677"/>
      <point x="363" y="676"/>
      <point x="320" y="676" type="qcurve" smooth="yes"/>
      <point x="226" y="676" type="line"/>
      <point x="161" y="619" type="line" smooth="yes"/>
      <point x="96" y="561"/>
      <point x="96" y="554" type="qcurve" smooth="yes"/>
      <point x="95" y="545"/>
      <point x="165" y="461" type="qcurve" smooth="yes"/>
      <point x="189" y="432" type="line"/>
      <point x="298" y="436" type="line" smooth="yes"/>
      <point x="407" y="440"/>
      <point x="415" y="432" type="qcurve" smooth="yes"/>
      <point x="421" y="426"/>
      <point x="423" y="383"/>
      <point x="417" y="379" type="qcurve" smooth="yes"/>
      <point x="410" y="376"/>
      <point x="278" y="371" type="qcurve" smooth="yes"/>
      <point x="144" y="367" type="line"/>
      <point x="77" y="448" type="line" smooth="yes"/>
      <point x="31" y="504"/>
      <point x="10" y="537"/>
      <point x="10" y="556" type="qcurve" smooth="yes"/>
      <point x="10" y="558"/>
      <point x="10" y="561" type="qcurve" smooth="yes"/>
      <point x="10" y="578"/>
      <point x="27" y="599"/>
      <point x="80" y="647" type="qcurve" smooth="yes"/>
      <point x="84" y="651"/>
      <point x="89" y="655"/>
      <point x="98" y="663"/>
      <point x="102" y="666" type="qcurve" smooth="yes"/>
      <point x="142" y="702"/>
      <point x="156" y="714" type="qcurve" smooth="yes"/>
      <point x="175" y="732"/>
    </contour>
  </outline>
</glyph>
<glyph name="equal" format="2">
  <advance width="414"/>
  <unicode hex="003D"/>
  <outline>
    <contour>
      <point x="12" y="647" type="qcurve" smooth="yes"/>
      <point x="14" y="653"/>
      <point x="87" y="656"/>
      <point x="210" y="655" type="qcurve" smooth="yes"/>
      <point x="405" y="653" type="line"/>
      <point x="405" y="601" type="line"/>
      <point x="13" y="601" type="line"/>
      <point x="11" y="619" type="line" smooth="yes"/>
      <point x="8" y="637"/>
    </contour>
    <contour>
      <point x="36" y="487" type="qcurve" smooth="yes"/>
      <point x="59" y="491"/>
      <point x="336" y="492"/>
      <point x="359" y="488" type="qcurve" smooth="yes"/>
      <point x="378" y="484"/>
      <point x="385" y="476"/>
      <point x="385" y="457" type="qcurve" smooth="yes"/>
      <point x="385" y="431" type="line"/>
      <point x="13" y="431" type="line"/>
      <point x="13" y="457" type="line" smooth="yes"/>
      <point x="13" y="475"/>
      <point x="19" y="484"/>
    </contour>
  </outline>
</glyph>
<glyph name="greater" format="2">
  <advance width="417"/>
  <unicode hex="003E"/>
  <outline>
    <contour>
      <point x="15" y="730" type="qcurve" smooth="yes"/>
      <point x="18" y="735"/>
      <point x="141" y="735" type="qcurve" smooth="yes"/>
      <point x="264" y="735" type="line"/>
      <point x="336" y="658" type="line" smooth="yes"/>
      <point x="363" y="630"/>
      <point x="384" y="607"/>
      <point x="406" y="570"/>
      <point x="409" y="558"/>
      <point x="403" y="518"/>
      <point x="392" y="494"/>
      <point x="379" y="461" type="qcurve" smooth="yes"/>
      <point x="350" y="395"/>
      <point x="343" y="376" type="qcurve" smooth="yes"/>
      <point x="336" y="362"/>
      <point x="322" y="356" type="qcurve" smooth="yes"/>
      <point x="309" y="351"/>
      <point x="73" y="334"/>
      <point x="52" y="337" type="qcurve" smooth="yes"/>
      <point x="40" y="339"/>
      <point x="32" y="347"/>
      <point x="31" y="361" type="qcurve" smooth="yes"/>
      <point x="28" y="383"/>
      <point x="34" y="389" type="qcurve" smooth="yes"/>
      <point x="41" y="396"/>
      <point x="156" y="404" type="qcurve" smooth="yes"/>
      <point x="238" y="411"/>
      <point x="291" y="423"/>
      <point x="291" y="435" type="qcurve" smooth="yes"/>
      <point x="291" y="443"/>
      <point x="313" y="493" type="qcurve" smooth="yes"/>
      <point x="336" y="546" type="line"/>
      <point x="286" y="601" type="line" smooth="yes"/>
      <point x="285" y="603"/>
      <point x="281" y="607" type="qcurve" smooth="yes"/>
      <point x="262" y="628"/>
      <point x="247" y="645"/>
      <point x="220" y="666"/>
      <point x="211" y="670"/>
      <point x="179" y="675"/>
      <point x="158" y="674"/>
      <point x="132" y="672" type="qcurve" smooth="yes"/>
      <point x="126" y="672"/>
      <point x="122" y="672" type="qcurve" smooth="yes"/>
      <point x="75" y="668"/>
      <point x="25" y="673"/>
      <point x="10" y="687"/>
      <point x="10" y="705" type="qcurve" smooth="yes"/>
      <point x="10" y="727"/>
    </contour>
  </outline>
</glyph>
<glyph name="question" format="2">
  <advance width="346"/>
  <unicode hex="003F"/>
  <outline>
    <contour>
      <point x="14" y="751" type="line"/>
      <point x="12" y="776"/>
      <point x="10" y="800" type="qcurve"/>
      <point x="173" y="800" type="line" smooth="yes"/>
      <point x="287" y="800"/>
      <point x="337" y="797"/>
      <point x="337" y="789" type="qcurve" smooth="yes"/>
      <point x="337" y="754"/>
      <point x="314" y="519"/>
      <point x="310" y="514" type="qcurve" smooth="yes"/>
      <point x="304" y="506"/>
      <point x="204" y="505" type="qcurve" smooth="yes"/>
      <point x="105" y="503" type="line"/>
      <point x="102" y="463"/>
      <point x="99" y="424" type="qcurve"/>
      <point x="40" y="424" type="line"/>
      <point x="38" y="489" type="line" smooth="yes"/>
      <point x="36" y="553"/>
      <point x="50" y="568"/>
      <point x="153" y="571" type="qcurve" smooth="yes"/>
      <point x="256" y="575" type="line"/>
      <point x="260" y="617" type="line" smooth="yes"/>
      <point x="263" y="649"/>
      <point x="266" y="705" type="qcurve" smooth="yes"/>
      <point x="269" y="751" type="line"/>
    </contour>
    <contour>
      <point x="38" y="292" type="qcurve" smooth="yes"/>
      <point x="35" y="316"/>
      <point x="47" y="330"/>
      <point x="71" y="328" type="qcurve" smooth="yes"/>
      <point x="92" y="327"/>
      <point x="99" y="320"/>
      <point x="99" y="300" type="qcurve" smooth="yes"/>
      <point x="99" y="274" type="line"/>
      <point x="69" y="274" type="line" smooth="yes"/>
      <point x="49" y="274"/>
      <point x="40" y="279"/>
    </contour>
  </outline>
</glyph>
<glyph name="at" format="2">
  <advance width="660"/>
  <unicode hex="0040"/>
  <outline>
    <contour>
      <point x="10" y="461" type="qcurve" smooth="yes"/>
      <point x="10" y="800" type="line"/>
      <point x="651" y="800" type="line"/>
      <point x="650" y="756" type="line" smooth="yes"/>
      <point x="649" y="648"/>
      <point x="630" y="294"/>
      <point x="625" y="288" type="qcurve" smooth="yes"/>
      <point x="617" y="280"/>
      <point x="400" y="280" type="qcurve" smooth="yes"/>
      <point x="183" y="280" type="line"/>
      <point x="181" y="373" type="line" smooth="yes"/>
      <point x="180" y="465"/>
      <point x="188" y="472" type="qcurve" smooth="yes"/>
      <point x="198" y="480"/>
      <point x="291" y="481" type="qcurve" smooth="yes"/>
      <point x="385" y="483" type="line"/>
      <point x="390" y="506" type="line" smooth="yes"/>
      <point x="395" y="529"/>
      <point x="397" y="555" type="qcurve" smooth="yes"/>
      <point x="399" y="581" type="line"/>
      <point x="301" y="584"/>
      <point x="203" y="588" type="qcurve"/>
      <point x="203" y="640" type="line"/>
      <point x="258" y="644" type="line" smooth="yes"/>
      <point x="341" y="650"/>
      <point x="454" y="648"/>
      <point x="461" y="639" type="qcurve" smooth="yes"/>
      <point x="466" y="633"/>
      <point x="464" y="580"/>
      <point x="455" y="497" type="qcurve" smooth="yes"/>
      <point x="441" y="370"/>
      <point x="441" y="354" type="qcurve" smooth="yes"/>
      <point x="441" y="346"/>
      <point x="462" y="343"/>
      <point x="505" y="344" type="qcurve" smooth="yes"/>
      <point x="569" y="346" type="line"/>
      <point x="573" y="411" type="line" smooth="yes"/>
      <point x="578" y="492"/>
      <point x="580" y="620" type="qcurve" smooth="yes"/>
      <point x="582" y="764" type="line"/>
      <point x="72" y="764" type="line"/>
      <point x="72" y="176" type="line"/>
      <point x="339" y="174" type="line" smooth="yes"/>
      <point x="606" y="173"/>
      <point x="616" y="165" type="qcurve" smooth="yes"/>
      <point x="625" y="157"/>
      <point x="623" y="134" type="qcurve" smooth="yes"/>
      <point x="621" y="110" type="line"/>
      <point x="324" y="108" type="line" smooth="yes"/>
      <point x="27" y="108"/>
      <point x="19" y="114" type="qcurve" smooth="yes"/>
      <point x="13" y="119"/>
      <point x="10" y="249"/>
    </contour>
    <contour>
      <point x="377" y="410" type="qcurve" smooth="yes"/>
      <point x="372" y="413"/>
      <point x="313" y="418" type="qcurve" smooth="yes"/>
      <point x="261" y="422"/>
      <point x="244" y="410"/>
      <point x="247" y="375" type="qcurve" smooth="yes"/>
      <point x="249" y="346" type="line"/>
      <point x="373" y="346" type="line"/>
      <point x="377" y="377" type="line" smooth="yes"/>
      <point x="380" y="409"/>
    </contour>
  </outline>
</glyph>
<glyph name="A" format="2">
  <advance width="511"/>
  <unicode hex="0041"/>
  <outline>
    <contour>
      <point x="21" y="779" type="qcurve" smooth="yes"/>
      <point x="28" y="787"/>
      <point x="251" y="787" type="qcurve" smooth="yes"/>
      <point x="475" y="787"/>
      <point x="485" y="779" type="qcurve" smooth="yes"/>
      <point x="492" y="774"/>
      <point x="497" y="676"/>
      <point x="500" y="499" type="qcurve" smooth="yes"/>
      <point x="504" y="261"/>
      <point x="498" y="233" type="qcurve" smooth="yes"/>
      <point x="494" y="213"/>
      <point x="480" y="212" type="qcurve" smooth="yes"/>
      <point x="477" y="212"/>
      <point x="463" y="213" type="qcurve" smooth="yes"/>
      <point x="441" y="215" type="line"/>
      <point x="438" y="333"/>
      <point x="435" y="450" type="qcurve"/>
      <point x="75" y="450" type="line"/>
      <point x="73" y="337" type="line" smooth="yes"/>
      <point x="71" y="223"/>
      <point x="64" y="214" type="qcurve" smooth="yes"/>
      <point x="57" y="204"/>
      <point x="34" y="207" type="qcurve" smooth="yes"/>
      <point x="10" y="208" type="line"/>
      <point x="13" y="490" type="line" smooth="yes"/>
      <point x="15" y="771"/>
    </contour>
    <contour>
      <point x="437" y="624" type="qcurve" smooth="yes"/>
      <point x="435" y="718" type="line"/>
      <point x="260" y="720" type="line" smooth="yes"/>
      <point x="84" y="722"/>
      <point x="82" y="714" type="qcurve" smooth="yes"/>
      <point x="79" y="706"/>
      <point x="77" y="610" type="qcurve" smooth="yes"/>
      <point x="75" y="516" type="line"/>
      <point x="252" y="518" type="line" smooth="yes"/>
      <point x="428" y="519"/>
      <point x="434" y="525" type="qcurve" smooth="yes"/>
      <point x="438" y="529"/>
    </contour>
  </outline>
</glyph>
<glyph name="B" format="2">
  <advance width="424"/>
  <unicode hex="0042"/>
  <outline>
    <contour>
      <point x="27" y="753" type="qcurve" smooth="yes"/>
      <point x="30" y="761"/>
      <point x="192" y="759" type="qcurve" smooth="yes"/>
      <point x="354" y="758" type="line"/>
      <point x="357" y="640"/>
      <point x="361" y="522" type="qcurve"/>
      <point x="384" y="519"/>
      <point x="406" y="516" type="qcurve"/>
      <point x="412" y="377" type="line" smooth="yes"/>
      <point x="417" y="235"/>
      <point x="414" y="228" type="qcurve" smooth="yes"/>
      <point x="412" y="224"/>
      <point x="400" y="221"/>
      <point x="354" y="219"/>
      <point x="282" y="219"/>
      <point x="213" y="220" type="qcurve" smooth="yes"/>
      <point x="86" y="221"/>
      <point x="14" y="225"/>
      <point x="11" y="231" type="qcurve" smooth="yes"/>
      <point x="7" y="239"/>
      <point x="23" y="741"/>
    </contour>
    <contour>
      <point x="297" y="692" type="qcurve" smooth="yes"/>
      <point x="294" y="698"/>
      <point x="257" y="702"/>
      <point x="192" y="702" type="qcurve" smooth="yes"/>
      <point x="91" y="702"/>
      <point x="88" y="697" type="qcurve" smooth="yes"/>
      <point x="83" y="694"/>
      <point x="83" y="610" type="qcurve" smooth="yes"/>
      <point x="83" y="527" type="line"/>
      <point x="170" y="522" type="line" smooth="yes"/>
      <point x="180" y="522"/>
      <point x="198" y="521" type="qcurve" smooth="yes"/>
      <point x="219" y="519"/>
      <point x="237" y="518"/>
      <point x="263" y="519"/>
      <point x="271" y="520"/>
      <point x="285" y="528"/>
      <point x="286" y="534"/>
      <point x="292" y="552"/>
      <point x="292" y="565"/>
      <point x="293" y="580" type="qcurve" smooth="yes"/>
      <point x="294" y="594"/>
      <point x="295" y="602" type="qcurve" smooth="yes"/>
      <point x="301" y="681"/>
    </contour>
    <contour>
      <point x="340" y="448" type="qcurve" smooth="yes"/>
      <point x="333" y="455"/>
      <point x="208" y="459" type="qcurve" smooth="yes"/>
      <point x="131" y="461"/>
      <point x="82" y="458"/>
      <point x="80" y="453" type="qcurve" smooth="yes"/>
      <point x="77" y="440"/>
      <point x="74" y="371" type="qcurve" smooth="yes"/>
      <point x="70" y="298"/>
      <point x="78" y="292" type="qcurve" smooth="yes"/>
      <point x="87" y="285"/>
      <point x="217" y="283" type="qcurve" smooth="yes"/>
      <point x="348" y="280" type="line"/>
      <point x="348" y="360" type="line" smooth="yes"/>
      <point x="348" y="440"/>
    </contour>
  </outline>
</glyph>
<glyph name="C" format="2">
  <advance width="489"/>
  <unicode hex="0043"/>
  <outline>
    <contour>
      <point x="22" y="754" type="qcurve" smooth="yes"/>
      <point x="25" y="759"/>
      <point x="261" y="760"/>
      <point x="385" y="755" type="qcurve" smooth="yes"/>
      <point x="480" y="751" type="line"/>
      <point x="480" y="692" type="line"/>
      <point x="431" y="692" type="line" smooth="yes"/>
      <point x="370" y="692"/>
      <point x="231" y="695" type="qcurve" smooth="yes"/>
      <point x="81" y="699" type="line"/>
      <point x="76" y="497" type="line" smooth="yes"/>
      <point x="71" y="294"/>
      <point x="74" y="285" type="qcurve" smooth="yes"/>
      <point x="77" y="279"/>
      <point x="140" y="276"/>
      <point x="256" y="278" type="qcurve" smooth="yes"/>
      <point x="435" y="282"/>
      <point x="450" y="278" type="qcurve" smooth="yes"/>
      <point x="457" y="276"/>
      <point x="464" y="270"/>
      <point x="466" y="259"/>
      <point x="466" y="248" type="qcurve" smooth="yes"/>
      <point x="466" y="222" type="line"/>
      <point x="242" y="220" type="line"/>
      <point x="19" y="218" type="line"/>
      <point x="12" y="234" type="line" smooth="yes"/>
      <point x="7" y="247"/>
      <point x="17" y="745"/>
    </contour>
  </outline>
</glyph>
<glyph name="D" format="2">
  <advance width="409"/>
  <unicode hex="0044"/>
  <outline>
    <contour>
      <point x="27" y="790" type="qcurve" smooth="yes"/>
      <point x="35" y="800"/>
      <point x="66" y="800"/>
      <point x="377" y="727"/>
      <point x="389" y="720" type="qcurve" smooth="yes"/>
      <point x="398" y="716"/>
      <point x="400" y="665"/>
      <point x="397" y="540" type="qcurve" smooth="yes"/>
      <point x="394" y="385"/>
      <point x="386" y="316"/>
      <point x="372" y="310" type="qcurve" smooth="yes"/>
      <point x="359" y="304"/>
      <point x="220" y="260" type="qcurve" smooth="yes"/>
      <point x="108" y="224"/>
      <point x="26" y="208"/>
      <point x="15" y="220" type="qcurve" smooth="yes"/>
      <point x="6" y="231"/>
      <point x="17" y="778"/>
    </contour>
    <contour>
      <point x="224" y="693" type="line" smooth="yes"/>
      <point x="115" y="721"/>
      <point x="99" y="721" type="qcurve" smooth="yes"/>
      <point x="82" y="722" type="line"/>
      <point x="78" y="580" type="line" smooth="yes"/>
      <point x="69" y="299"/>
      <point x="79" y="294" type="qcurve" smooth="yes"/>
      <point x="83" y="292"/>
      <point x="286" y="354"/>
      <point x="319" y="365" type="qcurve" smooth="yes"/>
      <point x="325" y="367"/>
      <point x="337" y="580"/>
      <point x="333" y="630" type="qcurve" smooth="yes"/>
      <point x="331" y="666" type="line"/>
    </contour>
  </outline>
</glyph>
<glyph name="E" format="2">
  <advance width="475"/>
  <unicode hex="0045"/>
  <outline>
    <contour>
      <point x="26" y="757" type="qcurve" smooth="yes"/>
      <point x="30" y="760"/>
      <point x="446" y="754"/>
      <point x="458" y="751" type="qcurve" smooth="yes"/>
      <point x="466" y="749"/>
      <point x="466" y="703"/>
      <point x="459" y="699" type="qcurve" smooth="yes"/>
      <point x="453" y="695"/>
      <point x="273" y="695" type="qcurve" smooth="yes"/>
      <point x="226" y="695"/>
      <point x="141" y="694"/>
      <point x="92" y="692"/>
      <point x="92" y="691" type="qcurve" smooth="yes"/>
      <point x="87" y="685"/>
      <point x="86" y="604" type="qcurve" smooth="yes"/>
      <point x="84" y="522" type="line"/>
      <point x="212" y="522" type="line" smooth="yes"/>
      <point x="341" y="522"/>
      <point x="348" y="515" type="qcurve" smooth="yes"/>
      <point x="356" y="507"/>
      <point x="354" y="486" type="qcurve" smooth="yes"/>
      <point x="352" y="463" type="line"/>
      <point x="218" y="457"/>
      <point x="84" y="450" type="qcurve"/>
      <point x="78" y="419" type="line" smooth="yes"/>
      <point x="74" y="389"/>
      <point x="75" y="331" type="qcurve" smooth="yes"/>
      <point x="77" y="274" type="line"/>
      <point x="430" y="274" type="line"/>
      <point x="430" y="248" type="line" smooth="yes"/>
      <point x="430" y="236"/>
      <point x="428" y="226"/>
      <point x="420" y="220"/>
      <point x="412" y="218" type="qcurve" smooth="yes"/>
      <point x="388" y="211"/>
      <point x="21" y="210"/>
      <point x="14" y="216" type="qcurve" smooth="yes"/>
      <point x="7" y="224"/>
      <point x="14" y="422" type="qcurve" smooth="yes"/>
      <point x="22" y="622"/>
      <point x="22" y="686" type="qcurve" smooth="yes"/>
      <point x="22" y="752"/>
    </contour>
  </outline>
</glyph>
<glyph name="F" format="2">
  <advance width="466"/>
  <unicode hex="0046"/>
  <outline>
    <contour>
      <point x="73" y="761" type="line" smooth="yes"/>
      <point x="124" y="765"/>
      <point x="292" y="765" type="qcurve" smooth="yes"/>
      <point x="455" y="764" type="line"/>
      <point x="457" y="741" type="line" smooth="yes"/>
      <point x="459" y="717"/>
      <point x="450" y="710" type="qcurve" smooth="yes"/>
      <point x="441" y="702"/>
      <point x="262" y="701" type="qcurve" smooth="yes"/>
      <point x="83" y="699" type="line"/>
      <point x="81" y="609"/>
      <point x="79" y="519" type="qcurve"/>
      <point x="215" y="518" type="line"/>
      <point x="351" y="516" type="line"/>
      <point x="352" y="491" type="line" smooth="yes"/>
      <point x="355" y="466"/>
      <point x="346" y="463" type="qcurve" smooth="yes"/>
      <point x="339" y="460"/>
      <point x="207" y="456" type="qcurve" smooth="yes"/>
      <point x="76" y="450" type="line"/>
      <point x="73" y="336"/>
      <point x="69" y="222" type="qcurve"/>
      <point x="41" y="220" type="line" smooth="yes"/>
      <point x="13" y="218"/>
      <point x="11" y="226" type="qcurve" smooth="yes"/>
      <point x="8" y="236"/>
      <point x="13" y="496" type="qcurve" smooth="yes"/>
      <point x="17" y="758" type="line"/>
    </contour>
  </outline>
</glyph>
<glyph name="G" format="2">
  <advance width="495"/>
  <unicode hex="0047"/>
  <outline>
    <contour>
      <point x="22" y="775" type="qcurve" smooth="yes"/>
      <point x="27" y="783"/>
      <point x="250" y="778" type="qcurve" smooth="yes"/>
      <point x="473" y="774"/>
      <point x="477" y="769" type="qcurve" smooth="yes"/>
      <point x="482" y="764"/>
      <point x="484" y="738" type="qcurve" smooth="yes"/>
      <point x="486" y="712" type="line"/>
      <point x="437" y="712" type="line" smooth="yes"/>
      <point x="375" y="712"/>
      <point x="234" y="715" type="qcurve" smooth="yes"/>
      <point x="81" y="718" type="line"/>
      <point x="79" y="497" type="line" smooth="yes"/>
      <point x="77" y="276"/>
      <point x="85" y="274" type="qcurve" smooth="yes"/>
      <point x="92" y="271"/>
      <point x="241" y="276" type="qcurve" smooth="yes"/>
      <point x="388" y="280" type="line"/>
      <point x="388" y="470" type="line"/>
      <point x="317" y="475" type="line" smooth="yes"/>
      <point x="246" y="478"/>
      <point x="239" y="485" type="qcurve" smooth="yes"/>
      <point x="233" y="491"/>
      <point x="235" y="513" type="qcurve" smooth="yes"/>
      <point x="237" y="535" type="line"/>
      <point x="338" y="537" type="line" smooth="yes"/>
      <point x="438" y="539"/>
      <point x="447" y="531" type="qcurve" smooth="yes"/>
      <point x="458" y="523"/>
      <point x="457" y="234"/>
      <point x="447" y="225" type="qcurve" smooth="yes"/>
      <point x="438" y="217"/>
      <point x="44" y="206"/>
      <point x="26" y="213" type="qcurve" smooth="yes"/>
      <point x="10" y="219" type="line"/>
      <point x="14" y="493" type="line" smooth="yes"/>
      <point x="18" y="768"/>
    </contour>
  </outline>
</glyph>
<glyph name="H" format="2">
  <advance width="470"/>
  <unicode hex="0048"/>
  <outline>
    <contour>
      <point x="17" y="766" type="qcurve" smooth="yes"/>
      <point x="19" y="775"/>
      <point x="47" y="773" type="qcurve" smooth="yes"/>
      <point x="75" y="771" type="line"/>
      <point x="75" y="548" type="line"/>
      <point x="134" y="543" type="line" smooth="yes"/>
      <point x="190" y="539"/>
      <point x="294" y="540" type="qcurve" smooth="yes"/>
      <point x="396" y="542" type="line"/>
      <point x="399" y="651" type="line" smooth="yes"/>
      <point x="402" y="760"/>
      <point x="409" y="767" type="qcurve" smooth="yes"/>
      <point x="417" y="775"/>
      <point x="439" y="773" type="qcurve" smooth="yes"/>
      <point x="461" y="771" type="line"/>
      <point x="458" y="575" type="line" smooth="yes"/>
      <point x="456" y="365"/>
      <point x="452" y="297" type="qcurve" smooth="yes"/>
      <point x="448" y="215" type="line"/>
      <point x="426" y="213" type="line" smooth="yes"/>
      <point x="404" y="211"/>
      <point x="390" y="225"/>
      <point x="390" y="347" type="qcurve" smooth="yes"/>
      <point x="389" y="470" type="line"/>
      <point x="360" y="475" type="line" smooth="yes"/>
      <point x="322" y="479"/>
      <point x="204" y="479" type="qcurve" smooth="yes"/>
      <point x="78" y="480"/>
      <point x="75" y="472" type="qcurve" smooth="yes"/>
      <point x="74" y="465"/>
      <point x="68" y="339" type="qcurve" smooth="yes"/>
      <point x="62" y="215" type="line"/>
      <point x="10" y="215" type="line"/>
      <point x="12" y="486" type="line" smooth="yes"/>
      <point x="13" y="754"/>
    </contour>
  </outline>
</glyph>
<glyph name="I" format="2">
  <advance width="86"/>
  <unicode hex="0049"/>
  <outline>
    <contour>
      <point x="26" y="761" type="qcurve" smooth="yes"/>
      <point x="29" y="768"/>
      <point x="53" y="766" type="qcurve" smooth="yes"/>
      <point x="77" y="764" type="line"/>
      <point x="75" y="510" type="line" smooth="yes"/>
      <point x="73" y="256"/>
      <point x="67" y="240" type="qcurve" smooth="yes"/>
      <point x="64" y="234"/>
      <point x="58" y="228"/>
      <point x="47" y="225"/>
      <point x="38" y="225" type="qcurve" smooth="yes"/>
      <point x="14" y="225"/>
      <point x="11" y="235" type="qcurve" smooth="yes"/>
      <point x="7" y="244"/>
      <point x="21" y="755"/>
    </contour>
  </outline>
</glyph>
<glyph name="J" format="2">
  <advance width="321"/>
  <unicode hex="004A"/>
  <outline>
    <contour>
      <point x="255" y="773" type="qcurve" smooth="yes"/>
      <point x="258" y="780"/>
      <point x="303" y="780"/>
      <point x="309" y="772" type="qcurve" smooth="yes"/>
      <point x="316" y="765"/>
      <point x="297" y="245"/>
      <point x="290" y="225" type="qcurve" smooth="yes"/>
      <point x="284" y="210" type="line"/>
      <point x="156" y="214" type="line" smooth="yes"/>
      <point x="29" y="218"/>
      <point x="19" y="225" type="qcurve" smooth="yes"/>
      <point x="10" y="233"/>
      <point x="10" y="290" type="qcurve" smooth="yes"/>
      <point x="10" y="339"/>
      <point x="24" y="363"/>
      <point x="51" y="361" type="qcurve" smooth="yes"/>
      <point x="58" y="360"/>
      <point x="64" y="358"/>
      <point x="71" y="356"/>
      <point x="73" y="344"/>
      <point x="74" y="334"/>
      <point x="75" y="320" type="qcurve" smooth="yes"/>
      <point x="79" y="280" type="line"/>
      <point x="150" y="278" type="line" smooth="yes"/>
      <point x="222" y="277"/>
      <point x="227" y="282" type="qcurve" smooth="yes"/>
      <point x="233" y="289"/>
      <point x="243" y="526" type="qcurve" smooth="yes"/>
      <point x="254" y="767"/>
    </contour>
  </outline>
</glyph>
<glyph name="K" format="2">
  <advance width="372"/>
  <unicode hex="004B"/>
  <outline>
    <contour>
      <point x="28" y="776" type="qcurve" smooth="yes"/>
      <point x="34" y="787"/>
      <point x="58" y="786" type="qcurve" smooth="yes"/>
      <point x="82" y="784" type="line"/>
      <point x="82" y="663" type="line" smooth="yes"/>
      <point x="82" y="573"/>
      <point x="86" y="541"/>
      <point x="96" y="540" type="qcurve" smooth="yes"/>
      <point x="108" y="538"/>
      <point x="152" y="585"/>
      <point x="254" y="705" type="qcurve" smooth="yes"/>
      <point x="295" y="752"/>
      <point x="315" y="767"/>
      <point x="336" y="766" type="qcurve" smooth="yes"/>
      <point x="347" y="765"/>
      <point x="356" y="764"/>
      <point x="363" y="758"/>
      <point x="363" y="750"/>
      <point x="363" y="740" type="qcurve" smooth="yes"/>
      <point x="363" y="721"/>
      <point x="324" y="667"/>
      <point x="235" y="566" type="qcurve" smooth="yes"/>
      <point x="190" y="517"/>
      <point x="190" y="506" type="qcurve" smooth="yes"/>
      <point x="190" y="497"/>
      <point x="209" y="465" type="qcurve" smooth="yes"/>
      <point x="213" y="458"/>
      <point x="257" y="379"/>
      <point x="294" y="315"/>
      <point x="303" y="303" type="qcurve" smooth="yes"/>
      <point x="315" y="286"/>
      <point x="313" y="260" type="qcurve" smooth="yes"/>
      <point x="312" y="241"/>
      <point x="304" y="234"/>
      <point x="284" y="233" type="qcurve" smooth="yes"/>
      <point x="267" y="231"/>
      <point x="254" y="236"/>
      <point x="248" y="246" type="qcurve" smooth="yes"/>
      <point x="230" y="282"/>
      <point x="145" y="427" type="qcurve" smooth="yes"/>
      <point x="131" y="453"/>
      <point x="114" y="471"/>
      <point x="103" y="472" type="qcurve" smooth="yes"/>
      <point x="84" y="474"/>
      <point x="72" y="429"/>
      <point x="72" y="350" type="qcurve" smooth="yes"/>
      <point x="72" y="320"/>
      <point x="71" y="284"/>
      <point x="68" y="254"/>
      <point x="65" y="240"/>
      <point x="57" y="230"/>
      <point x="48" y="227"/>
      <point x="41" y="226" type="qcurve" smooth="yes"/>
      <point x="19" y="224"/>
      <point x="6" y="236"/>
      <point x="21" y="763"/>
    </contour>
  </outline>
</glyph>
<glyph name="L" format="2">
  <advance width="362"/>
  <unicode hex="004C"/>
  <outline>
    <contour>
      <point x="24" y="756" type="qcurve" smooth="yes"/>
      <point x="30" y="768"/>
      <point x="54" y="766" type="qcurve" smooth="yes"/>
      <point x="78" y="764" type="line"/>
      <point x="78" y="679" type="line" smooth="yes"/>
      <point x="78" y="610"/>
      <point x="76" y="437" type="qcurve" smooth="yes"/>
      <point x="73" y="280" type="line"/>
      <point x="213" y="277"/>
      <point x="353" y="274" type="qcurve"/>
      <point x="353" y="215" type="line"/>
      <point x="190" y="213" type="line" smooth="yes"/>
      <point x="28" y="211"/>
      <point x="17" y="220" type="qcurve" smooth="yes"/>
      <point x="11" y="225"/>
      <point x="9" y="317"/>
      <point x="13" y="486" type="qcurve" smooth="yes"/>
      <point x="18" y="746"/>
    </contour>
  </outline>
</glyph>
<glyph name="M" format="2">
  <advance width="571"/>
  <unicode hex="004D"/>
  <outline>
    <contour>
      <point x="134" y="769" type="qcurve" smooth="yes"/>
      <point x="369" y="773"/>
      <point x="544" y="771"/>
      <point x="553" y="765" type="qcurve" smooth="yes"/>
      <point x="562" y="758"/>
      <point x="563" y="685"/>
      <point x="557" y="495" type="qcurve" smooth="yes"/>
      <point x="548" y="234"/>
      <point x="542" y="227" type="qcurve" smooth="yes"/>
      <point x="535" y="218"/>
      <point x="490" y="218"/>
      <point x="487" y="227" type="qcurve" smooth="yes"/>
      <point x="485" y="234"/>
      <point x="492" y="472"/>
      <point x="500" y="704"/>
      <point x="498" y="706" type="qcurve" smooth="yes"/>
      <point x="495" y="708"/>
      <point x="333" y="708"/>
      <point x="331" y="701" type="qcurve" smooth="yes"/>
      <point x="328" y="694"/>
      <point x="320" y="532" type="qcurve" smooth="yes"/>
      <point x="311" y="372" type="line"/>
      <point x="252" y="372" type="line"/>
      <point x="256" y="480" type="line" smooth="yes"/>
      <point x="259" y="579"/>
      <point x="259" y="646" type="qcurve" smooth="yes"/>
      <point x="259" y="705" type="line"/>
      <point x="172" y="707" type="line" smooth="yes"/>
      <point x="85" y="709"/>
      <point x="82" y="700" type="qcurve" smooth="yes"/>
      <point x="79" y="691"/>
      <point x="74" y="457" type="qcurve" smooth="yes"/>
      <point x="69" y="222" type="line"/>
      <point x="48" y="220" type="line" smooth="yes"/>
      <point x="25" y="217"/>
      <point x="20" y="225" type="qcurve" smooth="yes"/>
      <point x="9" y="239"/>
      <point x="10" y="371" type="qcurve" smooth="yes"/>
      <point x="10" y="393"/>
      <point x="12" y="492" type="qcurve" smooth="yes"/>
      <point x="15" y="750"/>
      <point x="22" y="759" type="qcurve" smooth="yes"/>
      <point x="28" y="766"/>
    </contour>
  </outline>
</glyph>
<glyph name="N" format="2">
  <advance width="463"/>
  <unicode hex="004E"/>
  <outline>
    <contour>
      <point x="40" y="767" type="qcurve" smooth="yes"/>
      <point x="58" y="775"/>
      <point x="441" y="765"/>
      <point x="450" y="757" type="qcurve" smooth="yes"/>
      <point x="455" y="751"/>
      <point x="452" y="658"/>
      <point x="441" y="492" type="qcurve" smooth="yes"/>
      <point x="423" y="236"/>
      <point x="420" y="230" type="qcurve" smooth="yes"/>
      <point x="415" y="222"/>
      <point x="371" y="228"/>
      <point x="366" y="237" type="qcurve" smooth="yes"/>
      <point x="360" y="247"/>
      <point x="391" y="695"/>
      <point x="388" y="701" type="qcurve" smooth="yes"/>
      <point x="386" y="709"/>
      <point x="236" y="707" type="qcurve" smooth="yes"/>
      <point x="87" y="705" type="line"/>
      <point x="82" y="561" type="line" smooth="yes"/>
      <point x="78" y="438"/>
      <point x="72" y="316" type="qcurve" smooth="yes"/>
      <point x="68" y="215" type="line"/>
      <point x="42" y="213" type="line" smooth="yes"/>
      <point x="17" y="211"/>
      <point x="12" y="216" type="qcurve" smooth="yes"/>
      <point x="6" y="222"/>
      <point x="16" y="476" type="qcurve" smooth="yes"/>
      <point x="25" y="740"/>
      <point x="25" y="746" type="qcurve" smooth="yes"/>
      <point x="25" y="761"/>
    </contour>
  </outline>
</glyph>
<glyph name="O" format="2">
  <advance width="472"/>
  <unicode hex="004F"/>
  <outline>
    <contour>
      <point x="15" y="750" type="qcurve" smooth="yes"/>
      <point x="19" y="754"/>
      <point x="460" y="754"/>
      <point x="463" y="750" type="qcurve" smooth="yes"/>
      <point x="465" y="743"/>
      <point x="458" y="488" type="qcurve" smooth="yes"/>
      <point x="452" y="248"/>
      <point x="445" y="229" type="qcurve" smooth="yes"/>
      <point x="443" y="224"/>
      <point x="439" y="221" type="qcurve" smooth="yes"/>
      <point x="426" y="212"/>
      <point x="27" y="210"/>
      <point x="18" y="220" type="qcurve" smooth="yes"/>
      <point x="10" y="227"/>
      <point x="10" y="486" type="qcurve" smooth="yes"/>
      <point x="10" y="746"/>
    </contour>
    <contour>
      <point x="394" y="492" type="qcurve" smooth="yes"/>
      <point x="398" y="695" type="line"/>
      <point x="239" y="695" type="line" smooth="yes"/>
      <point x="81" y="695"/>
      <point x="79" y="687" type="qcurve" smooth="yes"/>
      <point x="75" y="680"/>
      <point x="77" y="480" type="qcurve" smooth="yes"/>
      <point x="79" y="280" type="line"/>
      <point x="228" y="278" type="line" smooth="yes"/>
      <point x="379" y="277"/>
      <point x="385" y="283" type="qcurve" smooth="yes"/>
      <point x="391" y="289"/>
    </contour>
  </outline>
</glyph>
<glyph name="P" format="2">
  <advance width="404"/>
  <unicode hex="0050"/>
  <outline>
    <contour>
      <point x="92" y="768" type="line" smooth="yes"/>
      <point x="156" y="771"/>
      <point x="273" y="773" type="qcurve" smooth="yes"/>
      <point x="278" y="773"/>
      <point x="287" y="773" type="qcurve" smooth="yes"/>
      <point x="369" y="774"/>
      <point x="396" y="763"/>
      <point x="395" y="730" type="qcurve" smooth="yes"/>
      <point x="395" y="727"/>
      <point x="395" y="725" type="qcurve" smooth="yes"/>
      <point x="394" y="640"/>
      <point x="382" y="450"/>
      <point x="376" y="442" type="qcurve" smooth="yes"/>
      <point x="370" y="435"/>
      <point x="318" y="429"/>
      <point x="221" y="427" type="qcurve" smooth="yes"/>
      <point x="75" y="424" type="line"/>
      <point x="72" y="328" type="line" smooth="yes"/>
      <point x="69" y="232"/>
      <point x="62" y="225" type="qcurve" smooth="yes"/>
      <point x="54" y="217"/>
      <point x="32" y="220" type="qcurve" smooth="yes"/>
      <point x="10" y="222" type="line"/>
      <point x="12" y="378" type="line" smooth="yes"/>
      <point x="14" y="499"/>
      <point x="18" y="650" type="qcurve" smooth="yes"/>
      <point x="23" y="764" type="line"/>
    </contour>
    <contour>
      <point x="328" y="625" type="qcurve" smooth="yes"/>
      <point x="330" y="712" type="line"/>
      <point x="311" y="712" type="line" smooth="yes"/>
      <point x="274" y="712"/>
      <point x="196" y="710" type="qcurve" smooth="yes"/>
      <point x="136" y="709"/>
      <point x="96" y="704"/>
      <point x="91" y="698" type="qcurve" smooth="yes"/>
      <point x="82" y="687"/>
      <point x="82" y="592" type="qcurve" smooth="yes"/>
      <point x="82" y="496" type="line"/>
      <point x="317" y="496" type="line"/>
      <point x="321" y="518" type="line" smooth="yes"/>
      <point x="325" y="536"/>
    </contour>
  </outline>
</glyph>
<glyph name="Q" format="2">
  <advance width="543"/>
  <unicode hex="0051"/>
  <outline>
    <contour>
      <point x="39" y="776" type="qcurve" smooth="yes"/>
      <point x="45" y="783"/>
      <point x="131" y="787"/>
      <point x="286" y="787" type="qcurve" smooth="yes"/>
      <point x="430" y="787"/>
      <point x="527" y="783"/>
      <point x="531" y="778" type="qcurve" smooth="yes"/>
      <point x="538" y="770"/>
      <point x="526" y="282"/>
      <point x="519" y="275" type="qcurve" smooth="yes"/>
      <point x="514" y="270"/>
      <point x="448" y="266" type="qcurve" smooth="yes"/>
      <point x="382" y="262" type="line"/>
      <point x="380" y="219"/>
      <point x="378" y="176" type="qcurve"/>
      <point x="326" y="176" type="line"/>
      <point x="323" y="222"/>
      <point x="319" y="267" type="qcurve"/>
      <point x="166" y="271"/>
      <point x="12" y="274" type="qcurve"/>
      <point x="10" y="329" type="line" smooth="yes"/>
      <point x="8" y="383"/>
      <point x="19" y="563" type="qcurve" smooth="yes"/>
      <point x="29" y="747"/>
      <point x="29" y="754" type="qcurve" smooth="yes"/>
      <point x="29" y="767"/>
    </contour>
    <contour>
      <point x="467" y="535" type="qcurve" smooth="yes"/>
      <point x="470" y="718" type="line"/>
      <point x="282" y="720" type="line" smooth="yes"/>
      <point x="93" y="721"/>
      <point x="93" y="720" type="qcurve" smooth="yes"/>
      <point x="90" y="714"/>
      <point x="71" y="337"/>
      <point x="74" y="334" type="qcurve" smooth="yes"/>
      <point x="78" y="330"/>
      <point x="199" y="331" type="qcurve" smooth="yes"/>
      <point x="319" y="333" type="line"/>
      <point x="323" y="378"/>
      <point x="326" y="424" type="qcurve"/>
      <point x="378" y="424" type="line"/>
      <point x="381" y="378"/>
      <point x="385" y="333" type="qcurve"/>
      <point x="419" y="331" type="line" smooth="yes"/>
      <point x="432" y="330"/>
      <point x="448" y="331"/>
      <point x="456" y="336"/>
      <point x="459" y="341" type="qcurve" smooth="yes"/>
      <point x="465" y="353"/>
    </contour>
  </outline>
</glyph>
<glyph name="R" format="2">
  <advance width="427"/>
  <unicode hex="0052"/>
  <outline>
    <contour>
      <point x="17" y="769" type="qcurve" smooth="yes"/>
      <point x="23" y="776"/>
      <point x="347" y="792"/>
      <point x="373" y="791" type="qcurve" smooth="yes"/>
      <point x="409" y="790"/>
      <point x="421" y="742"/>
      <point x="415" y="610" type="qcurve" smooth="yes"/>
      <point x="409" y="462"/>
      <point x="406" y="456" type="qcurve" smooth="yes"/>
      <point x="403" y="447"/>
      <point x="357" y="447" type="qcurve" smooth="yes"/>
      <point x="311" y="447"/>
      <point x="311" y="431"/>
      <point x="334" y="392" type="qcurve" smooth="yes"/>
      <point x="378" y="314"/>
      <point x="403" y="257"/>
      <point x="402" y="239" type="qcurve" smooth="yes"/>
      <point x="400" y="222"/>
      <point x="393" y="215"/>
      <point x="373" y="215" type="qcurve" smooth="yes"/>
      <point x="372" y="215"/>
      <point x="370" y="215" type="qcurve" smooth="yes"/>
      <point x="352" y="215"/>
      <point x="326" y="251"/>
      <point x="268" y="359" type="qcurve" smooth="yes"/>
      <point x="265" y="363"/>
      <point x="262" y="369"/>
      <point x="258" y="377"/>
      <point x="256" y="380" type="qcurve" smooth="yes"/>
      <point x="219" y="448" type="line"/>
      <point x="146" y="446"/>
      <point x="73" y="444" type="qcurve"/>
      <point x="70" y="336"/>
      <point x="66" y="228" type="qcurve"/>
      <point x="44" y="226" type="line" smooth="yes"/>
      <point x="22" y="224"/>
      <point x="15" y="231" type="qcurve" smooth="yes"/>
      <point x="9" y="237"/>
      <point x="11" y="763"/>
    </contour>
    <contour>
      <point x="351" y="620" type="qcurve" smooth="yes"/>
      <point x="354" y="725" type="line"/>
      <point x="328" y="725" type="line" smooth="yes"/>
      <point x="293" y="726"/>
      <point x="85" y="713"/>
      <point x="81" y="710" type="qcurve" smooth="yes"/>
      <point x="75" y="703"/>
      <point x="69" y="520"/>
      <point x="75" y="516" type="qcurve" smooth="yes"/>
      <point x="84" y="511"/>
      <point x="342" y="505"/>
      <point x="345" y="510" type="qcurve" smooth="yes"/>
      <point x="349" y="516"/>
    </contour>
  </outline>
</glyph>
<glyph name="S" format="2">
  <advance width="397"/>
  <unicode hex="0053"/>
  <outline>
    <contour>
      <point x="25" y="761" type="qcurve" smooth="yes"/>
      <point x="39" y="767"/>
      <point x="213" y="765" type="qcurve" smooth="yes"/>
      <point x="386" y="764" type="line"/>
      <point x="388" y="741" type="line" smooth="yes"/>
      <point x="391" y="713"/>
      <point x="344" y="702"/>
      <point x="224" y="702" type="qcurve" smooth="yes"/>
      <point x="81" y="702"/>
      <point x="78" y="693" type="qcurve" smooth="yes"/>
      <point x="75" y="681"/>
      <point x="73" y="597" type="qcurve" smooth="yes"/>
      <point x="72" y="509" type="line"/>
      <point x="222" y="506"/>
      <point x="372" y="503" type="qcurve"/>
      <point x="381" y="486" type="line" smooth="yes"/>
      <point x="389" y="470"/>
      <point x="382" y="229"/>
      <point x="373" y="219" type="qcurve" smooth="yes"/>
      <point x="367" y="214"/>
      <point x="297" y="212"/>
      <point x="189" y="216" type="qcurve" smooth="yes"/>
      <point x="13" y="222" type="line"/>
      <point x="13" y="280" type="line"/>
      <point x="320" y="280" type="line"/>
      <point x="320" y="437" type="line"/>
      <point x="174" y="439" type="line" smooth="yes"/>
      <point x="28" y="440"/>
      <point x="18" y="448" type="qcurve" smooth="yes"/>
      <point x="10" y="455"/>
      <point x="10" y="605" type="qcurve" smooth="yes"/>
      <point x="10" y="717"/>
      <point x="14" y="756"/>
    </contour>
  </outline>
</glyph>
<glyph name="T" format="2">
  <advance width="488"/>
  <unicode hex="0054"/>
  <outline>
    <contour>
      <point x="12" y="752" type="qcurve" smooth="yes"/>
      <point x="14" y="757"/>
      <point x="95" y="761"/>
      <point x="231" y="761" type="qcurve" smooth="yes"/>
      <point x="446" y="761"/>
      <point x="464" y="754" type="qcurve" smooth="yes"/>
      <point x="475" y="750"/>
      <point x="480" y="739"/>
      <point x="479" y="724" type="qcurve" smooth="yes"/>
      <point x="477" y="699" type="line"/>
      <point x="375" y="695"/>
      <point x="274" y="692" type="qcurve"/>
      <point x="270" y="578" type="line" smooth="yes"/>
      <point x="267" y="533"/>
      <point x="260" y="342" type="qcurve" smooth="yes"/>
      <point x="254" y="222" type="line"/>
      <point x="231" y="220" type="line" smooth="yes"/>
      <point x="207" y="217"/>
      <point x="201" y="226" type="qcurve" smooth="yes"/>
      <point x="194" y="233"/>
      <point x="208" y="683"/>
      <point x="200" y="691" type="qcurve" smooth="yes"/>
      <point x="191" y="699"/>
      <point x="102" y="702" type="qcurve" smooth="yes"/>
      <point x="13" y="705" type="line"/>
      <point x="11" y="724" type="line" smooth="yes"/>
      <point x="8" y="742"/>
    </contour>
  </outline>
</glyph>
<glyph name="U" format="2">
  <advance width="469"/>
  <unicode hex="0055"/>
  <outline>
    <contour>
      <point x="20" y="768" type="qcurve" smooth="yes"/>
      <point x="25" y="775"/>
      <point x="48" y="773" type="qcurve" smooth="yes"/>
      <point x="72" y="771" type="line"/>
      <point x="75" y="532"/>
      <point x="79" y="293" type="qcurve"/>
      <point x="386" y="293" type="line"/>
      <point x="391" y="444" type="line" smooth="yes"/>
      <point x="396" y="619"/>
      <point x="401" y="682" type="qcurve" smooth="yes"/>
      <point x="405" y="771" type="line"/>
      <point x="458" y="771" type="line"/>
      <point x="460" y="699" type="line" smooth="yes"/>
      <point x="462" y="606"/>
      <point x="447" y="242"/>
      <point x="441" y="234" type="qcurve" smooth="yes"/>
      <point x="435" y="227"/>
      <point x="229" y="222"/>
      <point x="22" y="228"/>
      <point x="16" y="235" type="qcurve" smooth="yes"/>
      <point x="11" y="241"/>
      <point x="9" y="349"/>
      <point x="12" y="503" type="qcurve" smooth="yes"/>
      <point x="15" y="759"/>
    </contour>
  </outline>
</glyph>
<glyph name="V" format="2">
  <advance width="405"/>
  <unicode hex="0056"/>
  <outline>
    <contour>
      <point x="15" y="770" type="qcurve" smooth="yes"/>
      <point x="19" y="775"/>
      <point x="46" y="773" type="qcurve" smooth="yes"/>
      <point x="72" y="771" type="line"/>
      <point x="74" y="614" type="line"/>
      <point x="75" y="458" type="line"/>
      <point x="94" y="437" type="line" smooth="yes"/>
      <point x="109" y="419"/>
      <point x="151" y="366" type="qcurve" smooth="yes"/>
      <point x="190" y="316"/>
      <point x="196" y="316" type="qcurve" smooth="yes"/>
      <point x="202" y="316"/>
      <point x="215" y="335" type="qcurve" smooth="yes"/>
      <point x="220" y="341"/>
      <point x="278" y="408" type="qcurve" smooth="yes"/>
      <point x="327" y="463" type="line"/>
      <point x="334" y="617"/>
      <point x="340" y="771" type="qcurve"/>
      <point x="362" y="773" type="line" smooth="yes"/>
      <point x="384" y="775"/>
      <point x="390" y="769" type="qcurve" smooth="yes"/>
      <point x="397" y="762"/>
      <point x="395" y="438"/>
      <point x="381" y="411"/>
      <point x="281" y="293"/>
      <point x="249" y="259" type="qcurve" smooth="yes"/>
      <point x="227" y="236"/>
      <point x="207" y="225"/>
      <point x="189" y="225" type="qcurve" smooth="yes"/>
      <point x="172" y="225"/>
      <point x="157" y="232"/>
      <point x="150" y="242" type="qcurve" smooth="yes"/>
      <point x="141" y="259"/>
      <point x="120" y="284" type="qcurve" smooth="yes"/>
      <point x="117" y="288"/>
      <point x="80" y="333"/>
      <point x="52" y="367"/>
      <point x="23" y="409"/>
      <point x="19" y="419" type="qcurve" smooth="yes"/>
      <point x="10" y="439"/>
      <point x="10" y="603" type="qcurve" smooth="yes"/>
      <point x="10" y="765"/>
    </contour>
  </outline>
</glyph>
<glyph name="W" format="2">
  <advance width="582"/>
  <unicode hex="0057"/>
  <outline>
    <contour>
      <point x="17" y="773" type="qcurve" smooth="yes"/>
      <point x="19" y="781"/>
      <point x="44" y="779" type="qcurve" smooth="yes"/>
      <point x="69" y="777" type="line"/>
      <point x="72" y="532"/>
      <point x="75" y="287" type="qcurve"/>
      <point x="166" y="288" type="line" smooth="yes"/>
      <point x="258" y="291"/>
      <point x="264" y="297" type="qcurve" smooth="yes"/>
      <point x="270" y="302"/>
      <point x="279" y="468" type="qcurve" smooth="yes"/>
      <point x="289" y="634"/>
      <point x="291" y="642" type="qcurve" smooth="yes"/>
      <point x="294" y="650"/>
      <point x="339" y="649"/>
      <point x="352" y="633"/>
      <point x="334" y="300"/>
      <point x="339" y="295" type="qcurve" smooth="yes"/>
      <point x="344" y="290"/>
      <point x="416" y="292" type="qcurve" smooth="yes"/>
      <point x="487" y="293" type="line"/>
      <point x="500" y="522" type="line" smooth="yes"/>
      <point x="511" y="750"/>
      <point x="518" y="759" type="qcurve" smooth="yes"/>
      <point x="524" y="767"/>
      <point x="568" y="767"/>
      <point x="572" y="760" type="qcurve" smooth="yes"/>
      <point x="577" y="753"/>
      <point x="547" y="240"/>
      <point x="541" y="235" type="qcurve" smooth="yes"/>
      <point x="535" y="228"/>
      <point x="273" y="228" type="qcurve" smooth="yes"/>
      <point x="10" y="228" type="line"/>
      <point x="11" y="496" type="line" smooth="yes"/>
      <point x="14" y="766"/>
    </contour>
  </outline>
</glyph>
<glyph name="X" format="2">
  <advance width="557"/>
  <unicode hex="0058"/>
  <outline>
    <contour>
      <point x="13" y="767" type="qcurve" smooth="yes"/>
      <point x="13" y="790"/>
      <point x="22" y="800"/>
      <point x="42" y="800" type="qcurve" smooth="yes"/>
      <point x="50" y="800"/>
      <point x="61" y="795"/>
      <point x="89" y="767"/>
      <point x="121" y="730"/>
      <point x="156" y="688" type="qcurve" smooth="yes"/>
      <point x="251" y="572"/>
      <point x="258" y="561" type="qcurve" smooth="yes"/>
      <point x="265" y="552"/>
      <point x="275" y="556"/>
      <point x="292" y="575" type="qcurve" smooth="yes"/>
      <point x="461" y="752"/>
      <point x="482" y="780" type="qcurve" smooth="yes"/>
      <point x="488" y="788"/>
      <point x="502" y="793"/>
      <point x="518" y="792" type="qcurve" smooth="yes"/>
      <point x="533" y="791"/>
      <point x="543" y="787"/>
      <point x="547" y="778"/>
      <point x="548" y="764" type="qcurve" smooth="yes"/>
      <point x="549" y="745"/>
      <point x="521" y="708"/>
      <point x="444" y="627" type="qcurve" smooth="yes"/>
      <point x="343" y="520"/>
      <point x="329" y="501" type="qcurve" smooth="yes"/>
      <point x="322" y="491"/>
      <point x="331" y="473"/>
      <point x="359" y="439" type="qcurve" smooth="yes"/>
      <point x="363" y="435"/>
      <point x="369" y="427" type="qcurve" smooth="yes"/>
      <point x="466" y="310"/>
      <point x="497" y="265"/>
      <point x="496" y="249" type="qcurve" smooth="yes"/>
      <point x="496" y="247"/>
      <point x="496" y="246" type="qcurve" smooth="yes"/>
      <point x="495" y="238"/>
      <point x="493" y="231"/>
      <point x="491" y="224"/>
      <point x="485" y="222"/>
      <point x="478" y="220"/>
      <point x="463" y="219"/>
      <point x="453" y="220"/>
      <point x="436" y="231"/>
      <point x="422" y="245"/>
      <point x="391" y="281"/>
      <point x="359" y="319"/>
      <point x="330" y="354" type="qcurve" smooth="yes"/>
      <point x="273" y="426"/>
      <point x="265" y="427" type="qcurve" smooth="yes"/>
      <point x="258" y="427"/>
      <point x="183" y="348" type="qcurve" smooth="yes"/>
      <point x="180" y="344"/>
      <point x="173" y="337" type="qcurve" smooth="yes"/>
      <point x="89" y="247"/>
      <point x="55" y="218"/>
      <point x="36" y="219" type="qcurve" smooth="yes"/>
      <point x="35" y="220"/>
      <point x="34" y="220" type="qcurve" smooth="yes"/>
      <point x="17" y="221"/>
      <point x="10" y="229"/>
      <point x="10" y="268"/>
      <point x="38" y="306"/>
      <point x="109" y="381" type="qcurve" smooth="yes"/>
      <point x="209" y="487"/>
      <point x="209" y="496" type="qcurve" smooth="yes"/>
      <point x="209" y="504"/>
      <point x="185" y="535" type="qcurve" smooth="yes"/>
      <point x="177" y="544"/>
      <point x="53" y="694" type="qcurve" smooth="yes"/>
      <point x="28" y="724"/>
      <point x="13" y="751"/>
    </contour>
  </outline>
</glyph>
<glyph name="Y" format="2">
  <advance width="495"/>
  <unicode hex="0059"/>
  <outline>
    <contour>
      <point x="20" y="781" type="qcurve" smooth="yes"/>
      <point x="24" y="788"/>
      <point x="48" y="786" type="qcurve" smooth="yes"/>
      <point x="72" y="784" type="line"/>
      <point x="75" y="666"/>
      <point x="78" y="548" type="qcurve"/>
      <point x="241" y="543" type="line" smooth="yes"/>
      <point x="406" y="538"/>
      <point x="413" y="541" type="qcurve" smooth="yes"/>
      <point x="422" y="545"/>
      <point x="422" y="652" type="qcurve" smooth="yes"/>
      <point x="422" y="741"/>
      <point x="433" y="775"/>
      <point x="462" y="773" type="qcurve" smooth="yes"/>
      <point x="484" y="771" type="line"/>
      <point x="486" y="631" type="line" smooth="yes"/>
      <point x="488" y="491"/>
      <point x="473" y="476"/>
      <point x="379" y="478" type="qcurve" smooth="yes"/>
      <point x="315" y="479"/>
      <point x="283" y="476"/>
      <point x="279" y="469" type="qcurve" smooth="yes"/>
      <point x="277" y="464"/>
      <point x="268" y="349"/>
      <point x="259" y="234"/>
      <point x="257" y="229" type="qcurve" smooth="yes"/>
      <point x="251" y="218"/>
      <point x="227" y="220" type="qcurve" smooth="yes"/>
      <point x="203" y="222" type="line"/>
      <point x="203" y="274" type="line" smooth="yes"/>
      <point x="203" y="333"/>
      <point x="206" y="401" type="qcurve" smooth="yes"/>
      <point x="209" y="476" type="line"/>
      <point x="120" y="480" type="line" smooth="yes"/>
      <point x="30" y="484"/>
      <point x="19" y="493" type="qcurve" smooth="yes"/>
      <point x="12" y="500"/>
      <point x="9" y="546"/>
      <point x="12" y="639" type="qcurve" smooth="yes"/>
      <point x="17" y="776"/>
    </contour>
  </outline>
</glyph>
<glyph name="Z" format="2">
  <advance width="444"/>
  <unicode hex="005A"/>
  <outline>
    <contour>
      <point x="12" y="771" type="qcurve" smooth="yes"/>
      <point x="14" y="777"/>
      <point x="90" y="780"/>
      <point x="217" y="780" type="qcurve" smooth="yes"/>
      <point x="419" y="780"/>
      <point x="426" y="773" type="qcurve" smooth="yes"/>
      <point x="439" y="760"/>
      <point x="428" y="713"/>
      <point x="407" y="684" type="qcurve" smooth="yes"/>
      <point x="400" y="676"/>
      <point x="288" y="525" type="qcurve" smooth="yes"/>
      <point x="251" y="475"/>
      <point x="171" y="366"/>
      <point x="144" y="330" type="qcurve" smooth="yes"/>
      <point x="114" y="288"/>
      <point x="117" y="286" type="qcurve" smooth="yes"/>
      <point x="120" y="282"/>
      <point x="232" y="282" type="qcurve" smooth="yes"/>
      <point x="346" y="282"/>
      <point x="375" y="278" type="qcurve" smooth="yes"/>
      <point x="397" y="275"/>
      <point x="405" y="267"/>
      <point x="405" y="248" type="qcurve" smooth="yes"/>
      <point x="405" y="222" type="line"/>
      <point x="219" y="220" type="line" smooth="yes"/>
      <point x="91" y="219"/>
      <point x="30" y="222"/>
      <point x="24" y="229" type="qcurve" smooth="yes"/>
      <point x="1" y="261"/>
      <point x="37" y="311" type="qcurve" smooth="yes"/>
      <point x="82" y="375"/>
      <point x="159" y="476"/>
      <point x="186" y="513" type="qcurve" smooth="yes"/>
      <point x="212" y="550"/>
      <point x="275" y="635" type="qcurve" smooth="yes"/>
      <point x="336" y="715"/>
      <point x="328" y="718" type="qcurve" smooth="yes"/>
      <point x="321" y="722"/>
      <point x="166" y="723" type="qcurve" smooth="yes"/>
      <point x="13" y="725" type="line"/>
      <point x="11" y="743" type="line" smooth="yes"/>
      <point x="8" y="762"/>
    </contour>
  </outline>
</glyph>
<glyph name="bracketleft" format="2">
  <advance width="1019"/>
  <unicode hex="005B"/>
  <outline>
    <contour>
      <point x="10" y="-63"/>
      <point x="1010" y="-63"/>
      <point x="1010" y="-76"/>
      <point x="10" y="-76"/>
    </contour>
  </outline>
</glyph>
<glyph name="a" format="2">
  <advance width="398"/>
  <unicode hex="0061"/>
  <outline>
    <contour>
      <point x="28" y="658" type="qcurve" smooth="yes"/>
      <point x="32" y="663"/>
      <point x="292" y="661"/>
      <point x="340" y="657" type="qcurve" smooth="yes"/>
      <point x="386" y="653" type="line"/>
      <point x="388" y="614" type="line" smooth="yes"/>
      <point x="391" y="569"/>
      <point x="374" y="234"/>
      <point x="369" y="228" type="qcurve" smooth="yes"/>
      <point x="363" y="221"/>
      <point x="27" y="226"/>
      <point x="19" y="233" type="qcurve" smooth="yes"/>
      <point x="10" y="239"/>
      <point x="10" y="470"/>
      <point x="18" y="478" type="qcurve" smooth="yes"/>
      <point x="26" y="486"/>
      <point x="171" y="486" type="qcurve" smooth="yes"/>
      <point x="317" y="486"/>
      <point x="320" y="492" type="qcurve" smooth="yes"/>
      <point x="322" y="495"/>
      <point x="325" y="545" type="qcurve" smooth="yes"/>
      <point x="327" y="594" type="line"/>
      <point x="184" y="597" type="line" smooth="yes"/>
      <point x="39" y="601"/>
      <point x="32" y="606" type="qcurve" smooth="yes"/>
      <point x="25" y="610"/>
      <point x="22" y="653"/>
    </contour>
    <contour>
      <point x="293" y="424" type="line" smooth="yes"/>
      <point x="273" y="427"/>
      <point x="108" y="426"/>
      <point x="90" y="423" type="qcurve" smooth="yes"/>
      <point x="79" y="421"/>
      <point x="76" y="402"/>
      <point x="77" y="354" type="qcurve" smooth="yes"/>
      <point x="79" y="287" type="line"/>
      <point x="314" y="287" type="line"/>
      <point x="316" y="353"/>
      <point x="318" y="419" type="qcurve"/>
    </contour>
  </outline>
</glyph>
<glyph name="b" format="2">
  <advance width="370"/>
  <unicode hex="0062"/>
  <outline>
    <contour>
      <point x="33" y="720" type="qcurve" smooth="yes"/>
      <point x="37" y="800" type="line"/>
      <point x="101" y="800" type="line"/>
      <point x="97" y="704" type="line" smooth="yes"/>
      <point x="95" y="682"/>
      <point x="93" y="627"/>
      <point x="92" y="595"/>
      <point x="91" y="591" type="qcurve" smooth="yes"/>
      <point x="91" y="575" type="line"/>
      <point x="222" y="577" type="line" smooth="yes"/>
      <point x="353" y="579"/>
      <point x="359" y="572" type="qcurve"/>
      <point x="362" y="554"/>
      <point x="359" y="409"/>
      <point x="350" y="240"/>
      <point x="346" y="235" type="qcurve" smooth="yes"/>
      <point x="342" y="229"/>
      <point x="279" y="223"/>
      <point x="182" y="220" type="qcurve" smooth="yes"/>
      <point x="74" y="217"/>
      <point x="23" y="220"/>
      <point x="16" y="227" type="qcurve" smooth="yes"/>
      <point x="10" y="234"/>
      <point x="10" y="309"/>
      <point x="18" y="439" type="qcurve" smooth="yes"/>
      <point x="20" y="480"/>
      <point x="28" y="613"/>
      <point x="32" y="701"/>
    </contour>
    <contour>
      <point x="292" y="405" type="qcurve" smooth="yes"/>
      <point x="293" y="509" type="line"/>
      <point x="193" y="511" type="line" smooth="yes"/>
      <point x="119" y="512"/>
      <point x="92" y="509"/>
      <point x="88" y="498" type="qcurve" smooth="yes"/>
      <point x="83" y="484"/>
      <point x="80" y="385" type="qcurve" smooth="yes"/>
      <point x="78" y="287" type="line"/>
      <point x="181" y="285" type="line" smooth="yes"/>
      <point x="243" y="284"/>
      <point x="285" y="287"/>
      <point x="287" y="292" type="qcurve" smooth="yes"/>
      <point x="291" y="301"/>
    </contour>
  </outline>
</glyph>
<glyph name="c" format="2">
  <advance width="344"/>
  <unicode hex="0063"/>
  <outline>
    <contour>
      <point x="116" y="610" type="line" smooth="yes"/>
      <point x="296" y="618"/>
      <point x="319" y="612" type="qcurve" smooth="yes"/>
      <point x="336" y="607"/>
      <point x="335" y="588" type="qcurve" smooth="yes"/>
      <point x="335" y="586"/>
      <point x="334" y="576" type="qcurve" smooth="yes"/>
      <point x="332" y="555" type="line"/>
      <point x="212" y="551" type="line" smooth="yes"/>
      <point x="93" y="547"/>
      <point x="87" y="541" type="qcurve" smooth="yes"/>
      <point x="82" y="536"/>
      <point x="79" y="414" type="qcurve" smooth="yes"/>
      <point x="77" y="293" type="line"/>
      <point x="188" y="290"/>
      <point x="299" y="287" type="qcurve"/>
      <point x="301" y="262" type="line" smooth="yes"/>
      <point x="303" y="246"/>
      <point x="298" y="236"/>
      <point x="286" y="231" type="qcurve" smooth="yes"/>
      <point x="271" y="225"/>
      <point x="146" y="225" type="qcurve" smooth="yes"/>
      <point x="72" y="225"/>
      <point x="20" y="229"/>
      <point x="15" y="234" type="qcurve" smooth="yes"/>
      <point x="7" y="244"/>
      <point x="12" y="396" type="qcurve" smooth="yes"/>
      <point x="16" y="534"/>
      <point x="21" y="578" type="qcurve" smooth="yes"/>
      <point x="25" y="607" type="line"/>
    </contour>
  </outline>
</glyph>
<glyph name="d" format="2">
  <advance width="364"/>
  <unicode hex="0064"/>
  <outline>
    <contour>
      <point x="296" y="799" type="qcurve" smooth="yes"/>
      <point x="296" y="800"/>
      <point x="326" y="800" type="qcurve" smooth="yes"/>
      <point x="355" y="800" type="line"/>
      <point x="355" y="763" type="line" smooth="yes"/>
      <point x="355" y="724"/>
      <point x="342" y="467"/>
      <point x="327" y="239"/>
      <point x="325" y="237" type="qcurve" smooth="yes"/>
      <point x="320" y="233"/>
      <point x="23" y="243"/>
      <point x="15" y="248" type="qcurve" smooth="yes"/>
      <point x="7" y="253"/>
      <point x="15" y="580"/>
      <point x="23" y="589" type="qcurve" smooth="yes"/>
      <point x="30" y="597"/>
      <point x="153" y="597" type="qcurve" smooth="yes"/>
      <point x="276" y="597"/>
      <point x="280" y="604" type="qcurve" smooth="yes"/>
      <point x="284" y="610"/>
      <point x="290" y="704" type="qcurve" smooth="yes"/>
      <point x="296" y="798"/>
    </contour>
    <contour>
      <point x="278" y="467" type="qcurve" smooth="yes"/>
      <point x="280" y="535" type="line"/>
      <point x="184" y="537" type="line" smooth="yes"/>
      <point x="116" y="538"/>
      <point x="86" y="535"/>
      <point x="81" y="525" type="qcurve" smooth="yes"/>
      <point x="75" y="513"/>
      <point x="76" y="410" type="qcurve" smooth="yes"/>
      <point x="78" y="307" type="line"/>
      <point x="267" y="307" type="line"/>
      <point x="271" y="352" type="line" smooth="yes"/>
      <point x="275" y="390"/>
    </contour>
  </outline>
</glyph>
<glyph name="e" format="2">
  <advance width="347"/>
  <unicode hex="0065"/>
  <outline>
    <contour>
      <point x="25" y="642" type="qcurve" smooth="yes"/>
      <point x="30" y="653"/>
      <point x="67" y="656"/>
      <point x="174" y="656" type="qcurve" smooth="yes"/>
      <point x="317" y="656"/>
      <point x="328" y="648" type="qcurve" smooth="yes"/>
      <point x="336" y="641"/>
      <point x="339" y="602"/>
      <point x="337" y="519" type="qcurve" smooth="yes"/>
      <point x="336" y="442"/>
      <point x="331" y="397"/>
      <point x="323" y="392" type="qcurve" smooth="yes"/>
      <point x="312" y="383"/>
      <point x="198" y="387" type="qcurve" smooth="yes"/>
      <point x="192" y="387"/>
      <point x="181" y="387" type="qcurve" smooth="yes"/>
      <point x="101" y="390"/>
      <point x="74" y="378"/>
      <point x="74" y="341" type="qcurve" smooth="yes"/>
      <point x="74" y="336"/>
      <point x="74" y="333" type="qcurve" smooth="yes"/>
      <point x="74" y="300" type="line"/>
      <point x="188" y="295" type="line" smooth="yes"/>
      <point x="304" y="290"/>
      <point x="311" y="287" type="qcurve" smooth="yes"/>
      <point x="320" y="284"/>
      <point x="317" y="259" type="qcurve" smooth="yes"/>
      <point x="316" y="235" type="line"/>
      <point x="224" y="233" type="line" smooth="yes"/>
      <point x="129" y="231"/>
      <point x="74" y="236" type="qcurve" smooth="yes"/>
      <point x="51" y="238"/>
      <point x="32" y="240"/>
      <point x="16" y="245"/>
      <point x="13" y="251"/>
      <point x="12" y="258" type="qcurve" smooth="yes"/>
      <point x="7" y="275"/>
      <point x="19" y="628"/>
    </contour>
    <contour>
      <point x="274" y="522" type="qcurve" smooth="yes"/>
      <point x="276" y="588" type="line"/>
      <point x="183" y="590" type="line" smooth="yes"/>
      <point x="125" y="591"/>
      <point x="89" y="588"/>
      <point x="86" y="582" type="qcurve" smooth="yes"/>
      <point x="82" y="568"/>
      <point x="82" y="514" type="qcurve" smooth="yes"/>
      <point x="80" y="457" type="line"/>
      <point x="171" y="452" type="line" smooth="yes"/>
      <point x="262" y="447"/>
      <point x="266" y="452" type="qcurve" smooth="yes"/>
      <point x="272" y="456"/>
    </contour>
  </outline>
</glyph>
<glyph name="f" format="2">
  <advance width="221"/>
  <unicode hex="0066"/>
  <outline>
    <contour>
      <point x="15" y="787" type="qcurve" smooth="yes"/>
      <point x="20" y="796"/>
      <point x="52" y="800"/>
      <point x="117" y="800" type="qcurve" smooth="yes"/>
      <point x="212" y="800" type="line"/>
      <point x="210" y="773"/>
      <point x="208" y="744" type="qcurve"/>
      <point x="143" y="741"/>
      <point x="77" y="738" type="qcurve"/>
      <point x="77" y="561" type="line"/>
      <point x="125" y="559"/>
      <point x="173" y="558" type="qcurve"/>
      <point x="169" y="503" type="line"/>
      <point x="123" y="499"/>
      <point x="77" y="496" type="qcurve"/>
      <point x="74" y="372" type="line" smooth="yes"/>
      <point x="71" y="247"/>
      <point x="66" y="240" type="qcurve" smooth="yes"/>
      <point x="60" y="232"/>
      <point x="36" y="234" type="qcurve" smooth="yes"/>
      <point x="12" y="235" type="line"/>
      <point x="10" y="505" type="line" smooth="yes"/>
      <point x="9" y="776"/>
    </contour>
  </outline>
</glyph>
<glyph name="g" format="2">
  <advance width="383"/>
  <unicode hex="0067"/>
  <outline>
    <contour>
      <point x="37" y="654" type="qcurve" smooth="yes"/>
      <point x="44" y="664"/>
      <point x="369" y="664"/>
      <point x="372" y="654" type="qcurve" smooth="yes"/>
      <point x="375" y="624"/>
      <point x="372" y="357"/>
      <point x="361" y="51"/>
      <point x="357" y="48" type="qcurve" smooth="yes"/>
      <point x="350" y="40"/>
      <point x="181" y="46" type="qcurve" smooth="yes"/>
      <point x="12" y="52" type="line"/>
      <point x="10" y="76" type="line" smooth="yes"/>
      <point x="9" y="101"/>
      <point x="19" y="105" type="qcurve" smooth="yes"/>
      <point x="27" y="109"/>
      <point x="165" y="110" type="qcurve" smooth="yes"/>
      <point x="300" y="110" type="line"/>
      <point x="300" y="307" type="line"/>
      <point x="165" y="308" type="line" smooth="yes"/>
      <point x="70" y="309"/>
      <point x="27" y="314"/>
      <point x="22" y="323" type="qcurve" smooth="yes"/>
      <point x="16" y="335"/>
      <point x="29" y="645"/>
    </contour>
    <contour>
      <point x="306" y="372" type="line"/>
      <point x="306" y="594" type="line"/>
      <point x="201" y="596" type="line" smooth="yes"/>
      <point x="94" y="597"/>
      <point x="92" y="593" type="qcurve" smooth="yes"/>
      <point x="89" y="588"/>
      <point x="87" y="480" type="qcurve" smooth="yes"/>
      <point x="84" y="372" type="line"/>
    </contour>
  </outline>
</glyph>
<glyph name="h" format="2">
  <advance width="330"/>
  <unicode hex="0068"/>
  <outline>
    <contour>
      <point x="39" y="756" type="qcurve" smooth="yes"/>
      <point x="43" y="800" type="line"/>
      <point x="106" y="800" type="line"/>
      <point x="101" y="733" type="line" smooth="yes"/>
      <point x="97" y="668"/>
      <point x="97" y="627" type="qcurve" smooth="yes"/>
      <point x="97" y="588" type="line"/>
      <point x="199" y="584" type="line" smooth="yes"/>
      <point x="242" y="583"/>
      <point x="287" y="580"/>
      <point x="308" y="575"/>
      <point x="313" y="571" type="qcurve" smooth="yes"/>
      <point x="320" y="563"/>
      <point x="322" y="507"/>
      <point x="318" y="397" type="qcurve" smooth="yes"/>
      <point x="312" y="235" type="line"/>
      <point x="290" y="233" type="line" smooth="yes"/>
      <point x="268" y="230"/>
      <point x="254" y="244"/>
      <point x="253" y="380" type="qcurve" smooth="yes"/>
      <point x="253" y="516" type="line"/>
      <point x="173" y="518" type="line" smooth="yes"/>
      <point x="93" y="519"/>
      <point x="90" y="511" type="qcurve" smooth="yes"/>
      <point x="87" y="505"/>
      <point x="78" y="375" type="qcurve" smooth="yes"/>
      <point x="69" y="248"/>
      <point x="65" y="239" type="qcurve" smooth="yes"/>
      <point x="62" y="234"/>
      <point x="45" y="231"/>
      <point x="28" y="232"/>
      <point x="12" y="237"/>
      <point x="10" y="242" type="qcurve" smooth="yes"/>
      <point x="8" y="249"/>
      <point x="31" y="661"/>
    </contour>
  </outline>
</glyph>
<glyph name="i" format="2">
  <advance width="201"/>
  <unicode hex="0069"/>
  <outline>
    <contour>
      <point x="20" y="606" type="qcurve" smooth="yes"/>
      <point x="25" y="611"/>
      <point x="47" y="609" type="qcurve" smooth="yes"/>
      <point x="71" y="607" type="line"/>
      <point x="75" y="454"/>
      <point x="78" y="300" type="qcurve"/>
      <point x="133" y="297"/>
      <point x="189" y="293" type="qcurve"/>
      <point x="191" y="269" type="line" smooth="yes"/>
      <point x="192" y="253"/>
      <point x="187" y="242"/>
      <point x="176" y="238" type="qcurve" smooth="yes"/>
      <point x="161" y="231"/>
      <point x="92" y="231" type="qcurve" smooth="yes"/>
      <point x="24" y="231"/>
      <point x="8" y="251"/>
      <point x="12" y="425" type="qcurve" smooth="yes"/>
      <point x="17" y="600"/>
    </contour>
  </outline>
</glyph>
<glyph name="j" format="2">
  <advance width="318"/>
  <unicode hex="006A"/>
  <outline>
    <contour>
      <point x="255" y="618" type="qcurve" smooth="yes"/>
      <point x="259" y="625"/>
      <point x="283" y="622" type="qcurve" smooth="yes"/>
      <point x="307" y="620" type="line"/>
      <point x="309" y="567" type="line" smooth="yes"/>
      <point x="311" y="496"/>
      <point x="290" y="78"/>
      <point x="283" y="71" type="qcurve" smooth="yes"/>
      <point x="278" y="65"/>
      <point x="226" y="62"/>
      <point x="144" y="63" type="qcurve" smooth="yes"/>
      <point x="13" y="65" type="line"/>
      <point x="11" y="88" type="line" smooth="yes"/>
      <point x="10" y="93"/>
      <point x="10" y="101"/>
      <point x="12" y="109"/>
      <point x="15" y="114"/>
      <point x="22" y="119"/>
      <point x="30" y="122"/>
      <point x="45" y="125"/>
      <point x="61" y="126"/>
      <point x="85" y="127"/>
      <point x="110" y="127"/>
      <point x="128" y="127" type="qcurve" smooth="yes"/>
      <point x="226" y="127"/>
      <point x="228" y="135" type="qcurve" smooth="yes"/>
      <point x="230" y="141"/>
      <point x="252" y="613"/>
    </contour>
  </outline>
</glyph>
<glyph name="k" format="2">
  <advance width="350"/>
  <unicode hex="006B"/>
  <outline>
    <contour>
      <point x="52" y="795" type="qcurve" smooth="yes"/>
      <point x="56" y="801"/>
      <point x="79" y="799" type="qcurve" smooth="yes"/>
      <point x="90" y="798"/>
      <point x="97" y="797"/>
      <point x="104" y="788"/>
      <point x="105" y="778"/>
      <point x="105" y="764" type="qcurve" smooth="yes"/>
      <point x="106" y="751"/>
      <point x="97" y="610"/>
      <point x="85" y="455"/>
      <point x="85" y="450" type="qcurve" smooth="yes"/>
      <point x="84" y="428"/>
      <point x="94" y="428" type="qcurve" smooth="yes"/>
      <point x="110" y="429"/>
      <point x="197" y="519" type="qcurve" smooth="yes"/>
      <point x="246" y="569"/>
      <point x="280" y="601"/>
      <point x="299" y="610"/>
      <point x="313" y="609" type="qcurve" smooth="yes"/>
      <point x="331" y="608"/>
      <point x="339" y="600"/>
      <point x="341" y="583" type="qcurve" smooth="yes"/>
      <point x="342" y="573"/>
      <point x="340" y="563"/>
      <point x="322" y="539"/>
      <point x="297" y="512"/>
      <point x="268" y="482" type="qcurve" smooth="yes"/>
      <point x="192" y="405"/>
      <point x="192" y="401" type="qcurve" smooth="yes"/>
      <point x="192" y="397"/>
      <point x="254" y="335" type="qcurve" smooth="yes"/>
      <point x="297" y="293"/>
      <point x="316" y="267"/>
      <point x="315" y="251" type="qcurve" smooth="yes"/>
      <point x="313" y="235"/>
      <point x="305" y="228"/>
      <point x="285" y="226" type="qcurve" smooth="yes"/>
      <point x="265" y="225"/>
      <point x="239" y="243"/>
      <point x="187" y="293" type="qcurve" smooth="yes"/>
      <point x="141" y="338"/>
      <point x="110" y="362"/>
      <point x="97" y="361" type="qcurve" smooth="yes"/>
      <point x="77" y="359" type="line"/>
      <point x="71" y="297"/>
      <point x="64" y="235" type="qcurve"/>
      <point x="12" y="235" type="line"/>
      <point x="10" y="275" type="line" smooth="yes"/>
      <point x="9" y="307"/>
      <point x="47" y="787"/>
    </contour>
  </outline>
</glyph>
<glyph name="l" format="2">
  <advance width="114"/>
  <unicode hex="006C"/>
  <outline>
    <contour>
      <point x="44" y="759" type="qcurve" smooth="yes"/>
      <point x="48" y="800" type="line"/>
      <point x="105" y="800" type="line"/>
      <point x="105" y="766" type="line" smooth="yes"/>
      <point x="105" y="735"/>
      <point x="72" y="255"/>
      <point x="69" y="246" type="qcurve" smooth="yes"/>
      <point x="67" y="239"/>
      <point x="15" y="237"/>
      <point x="10" y="244" type="qcurve" smooth="yes"/>
      <point x="8" y="248"/>
      <point x="36" y="676"/>
    </contour>
  </outline>
</glyph>
<glyph name="m" format="2">
  <advance width="565"/>
  <unicode hex="006D"/>
  <outline>
    <contour>
      <point x="39" y="612" type="qcurve" smooth="yes"/>
      <point x="42" y="618"/>
      <point x="544" y="611"/>
      <point x="554" y="606" type="qcurve" smooth="yes"/>
      <point x="558" y="603"/>
      <point x="552" y="321"/>
      <point x="546" y="267" type="qcurve" smooth="yes"/>
      <point x="541" y="228" type="line"/>
      <point x="489" y="228" type="line"/>
      <point x="487" y="277" type="line" smooth="yes"/>
      <point x="486" y="331"/>
      <point x="490" y="433" type="qcurve" smooth="yes"/>
      <point x="496" y="539"/>
      <point x="492" y="542" type="qcurve" smooth="yes"/>
      <point x="484" y="547"/>
      <point x="342" y="551"/>
      <point x="339" y="546" type="qcurve" smooth="yes"/>
      <point x="335" y="540"/>
      <point x="322" y="388" type="qcurve" smooth="yes"/>
      <point x="309" y="237"/>
      <point x="306" y="231" type="qcurve" smooth="yes"/>
      <point x="301" y="222"/>
      <point x="256" y="227"/>
      <point x="252" y="236" type="qcurve" smooth="yes"/>
      <point x="248" y="247"/>
      <point x="259" y="394" type="qcurve" smooth="yes"/>
      <point x="271" y="540"/>
      <point x="265" y="546" type="qcurve" smooth="yes"/>
      <point x="260" y="550"/>
      <point x="100" y="557"/>
      <point x="97" y="552" type="qcurve" smooth="yes"/>
      <point x="95" y="550"/>
      <point x="83" y="405" type="qcurve" smooth="yes"/>
      <point x="73" y="264"/>
      <point x="67" y="246" type="qcurve" smooth="yes"/>
      <point x="63" y="238"/>
      <point x="52" y="231"/>
      <point x="38" y="231" type="qcurve" smooth="yes"/>
      <point x="14" y="231"/>
      <point x="11" y="242" type="qcurve" smooth="yes"/>
      <point x="7" y="251"/>
      <point x="34" y="605"/>
    </contour>
  </outline>
</glyph>
<glyph name="n" format="2">
  <advance width="383"/>
  <unicode hex="006E"/>
  <outline>
    <contour>
      <point x="31" y="630" type="qcurve" smooth="yes"/>
      <point x="45" y="636"/>
      <point x="198" y="636" type="qcurve" smooth="yes"/>
      <point x="307" y="636"/>
      <point x="353" y="633"/>
      <point x="363" y="623" type="qcurve" smooth="yes"/>
      <point x="372" y="614"/>
      <point x="375" y="595"/>
      <point x="373" y="569" type="qcurve" smooth="yes"/>
      <point x="368" y="519"/>
      <point x="365" y="393" type="qcurve" smooth="yes"/>
      <point x="362" y="283"/>
      <point x="350" y="243"/>
      <point x="322" y="246" type="qcurve" smooth="yes"/>
      <point x="300" y="248" type="line"/>
      <point x="300" y="307" type="line" smooth="yes"/>
      <point x="300" y="374"/>
      <point x="304" y="467" type="qcurve" smooth="yes"/>
      <point x="307" y="568" type="line"/>
      <point x="78" y="568" type="line"/>
      <point x="73" y="408" type="line" smooth="yes"/>
      <point x="68" y="246"/>
      <point x="65" y="239" type="qcurve" smooth="yes"/>
      <point x="62" y="231"/>
      <point x="38" y="233" type="qcurve" smooth="yes"/>
      <point x="13" y="235" type="line"/>
      <point x="11" y="395" type="line" smooth="yes"/>
      <point x="10" y="467"/>
      <point x="10" y="556"/>
      <point x="15" y="607"/>
      <point x="23" y="627"/>
    </contour>
  </outline>
</glyph>
<glyph name="o" format="2">
  <advance width="392"/>
  <unicode hex="006F"/>
  <outline>
    <contour>
      <point x="21" y="617" type="qcurve" smooth="yes"/>
      <point x="25" y="623"/>
      <point x="203" y="622" type="qcurve" smooth="yes"/>
      <point x="381" y="620" type="line"/>
      <point x="383" y="588" type="line" smooth="yes"/>
      <point x="386" y="550"/>
      <point x="378" y="405" type="qcurve" smooth="yes"/>
      <point x="370" y="254"/>
      <point x="361" y="244" type="qcurve" smooth="yes"/>
      <point x="356" y="240"/>
      <point x="326" y="236"/>
      <point x="255" y="235"/>
      <point x="183" y="235" type="qcurve" smooth="yes"/>
      <point x="15" y="235" type="line"/>
      <point x="11" y="254" type="line" smooth="yes"/>
      <point x="8" y="271"/>
      <point x="17" y="610"/>
    </contour>
    <contour>
      <point x="316" y="439" type="qcurve" smooth="yes"/>
      <point x="321" y="565" type="line"/>
      <point x="202" y="565" type="line" smooth="yes"/>
      <point x="84" y="565"/>
      <point x="81" y="560" type="qcurve" smooth="yes"/>
      <point x="79" y="555"/>
      <point x="76" y="424" type="qcurve" smooth="yes"/>
      <point x="74" y="293" type="line"/>
      <point x="185" y="295" type="line" smooth="yes"/>
      <point x="296" y="298"/>
      <point x="304" y="305" type="qcurve" smooth="yes"/>
      <point x="311" y="314"/>
    </contour>
  </outline>
</glyph>
<glyph name="p" format="2">
  <advance width="370"/>
  <unicode hex="0070"/>
  <outline>
    <contour>
      <point x="45" y="629" type="qcurve" smooth="yes"/>
      <point x="48" y="638"/>
      <point x="339" y="637"/>
      <point x="352" y="627" type="qcurve" smooth="yes"/>
      <point x="361" y="621"/>
      <point x="361" y="577"/>
      <point x="350" y="459" type="qcurve" smooth="yes"/>
      <point x="334" y="299"/>
      <point x="328" y="292" type="qcurve" smooth="yes"/>
      <point x="321" y="284"/>
      <point x="202" y="282" type="qcurve" smooth="yes"/>
      <point x="84" y="280" type="line"/>
      <point x="79" y="215" type="line" smooth="yes"/>
      <point x="75" y="162"/>
      <point x="69" y="104" type="qcurve" smooth="yes"/>
      <point x="64" y="58" type="line"/>
      <point x="12" y="58" type="line"/>
      <point x="10" y="91" type="line" smooth="yes"/>
      <point x="9" y="114"/>
      <point x="41" y="616"/>
    </contour>
    <contour>
      <point x="292" y="567" type="qcurve" smooth="yes"/>
      <point x="289" y="571"/>
      <point x="106" y="571"/>
      <point x="104" y="563" type="qcurve" smooth="yes"/>
      <point x="101" y="553"/>
      <point x="89" y="352"/>
      <point x="91" y="348" type="qcurve" smooth="yes"/>
      <point x="94" y="342"/>
      <point x="271" y="342"/>
      <point x="273" y="351" type="qcurve" smooth="yes"/>
      <point x="277" y="360"/>
      <point x="294" y="562"/>
    </contour>
  </outline>
</glyph>
<glyph name="q" format="2">
  <advance width="377"/>
  <unicode hex="0071"/>
  <outline>
    <contour>
      <point x="99" y="632" type="qcurve" smooth="yes"/>
      <point x="105" y="632"/>
      <point x="227" y="635"/>
      <point x="258" y="635" type="qcurve" smooth="yes"/>
      <point x="343" y="636"/>
      <point x="370" y="622"/>
      <point x="367" y="580" type="qcurve" smooth="yes"/>
      <point x="359" y="479"/>
      <point x="336" y="238"/>
      <point x="317" y="66"/>
      <point x="314" y="63" type="qcurve" smooth="yes"/>
      <point x="307" y="54"/>
      <point x="263" y="56"/>
      <point x="260" y="65" type="qcurve" smooth="yes"/>
      <point x="255" y="75"/>
      <point x="266" y="181" type="qcurve" smooth="yes"/>
      <point x="275" y="287"/>
      <point x="272" y="293" type="qcurve" smooth="yes"/>
      <point x="269" y="297"/>
      <point x="32" y="292"/>
      <point x="19" y="299" type="qcurve" smooth="yes"/>
      <point x="11" y="305"/>
      <point x="9" y="354"/>
      <point x="15" y="460" type="qcurve" smooth="yes"/>
      <point x="23" y="613"/>
      <point x="29" y="622" type="qcurve" smooth="yes"/>
      <point x="36" y="629"/>
    </contour>
    <contour>
      <point x="298" y="567" type="qcurve" smooth="yes"/>
      <point x="296" y="571"/>
      <point x="88" y="571"/>
      <point x="85" y="567" type="qcurve" smooth="yes"/>
      <point x="83" y="562"/>
      <point x="80" y="460" type="qcurve" smooth="yes"/>
      <point x="78" y="359" type="line"/>
      <point x="176" y="361" type="line" smooth="yes"/>
      <point x="273" y="363"/>
      <point x="278" y="368" type="qcurve" smooth="yes"/>
      <point x="282" y="372"/>
      <point x="301" y="561"/>
    </contour>
  </outline>
</glyph>
<glyph name="r" format="2">
  <advance width="303"/>
  <unicode hex="0072"/>
  <outline>
    <contour>
      <point x="15" y="625" type="qcurve" smooth="yes"/>
      <point x="18" y="633"/>
      <point x="59" y="637"/>
      <point x="140" y="637" type="qcurve" smooth="yes"/>
      <point x="263" y="637"/>
      <point x="278" y="630" type="qcurve" smooth="yes"/>
      <point x="289" y="626"/>
      <point x="294" y="615"/>
      <point x="293" y="599" type="qcurve" smooth="yes"/>
      <point x="291" y="575" type="line"/>
      <point x="183" y="571"/>
      <point x="75" y="568" type="qcurve"/>
      <point x="70" y="411" type="line" smooth="yes"/>
      <point x="65" y="257"/>
      <point x="62" y="246" type="qcurve" smooth="yes"/>
      <point x="59" y="237"/>
      <point x="35" y="239" type="qcurve" smooth="yes"/>
      <point x="10" y="241" type="line"/>
      <point x="10" y="427" type="line" smooth="yes"/>
      <point x="10" y="614"/>
    </contour>
  </outline>
</glyph>
<glyph name="s" format="2">
  <advance width="319"/>
  <unicode hex="0073"/>
  <outline>
    <contour>
      <point x="26" y="649" type="line" smooth="yes"/>
      <point x="36" y="653"/>
      <point x="284" y="651"/>
      <point x="298" y="646" type="qcurve" smooth="yes"/>
      <point x="307" y="644"/>
      <point x="305" y="619" type="qcurve" smooth="yes"/>
      <point x="303" y="594" type="line"/>
      <point x="192" y="591"/>
      <point x="81" y="588" type="qcurve"/>
      <point x="79" y="546" type="line" smooth="yes"/>
      <point x="76" y="506"/>
      <point x="85" y="495" type="qcurve" smooth="yes"/>
      <point x="92" y="486"/>
      <point x="298" y="486"/>
      <point x="305" y="477" type="qcurve" smooth="yes"/>
      <point x="312" y="469"/>
      <point x="306" y="273"/>
      <point x="299" y="252" type="qcurve" smooth="yes"/>
      <point x="293" y="238" type="line"/>
      <point x="158" y="239" type="line"/>
      <point x="22" y="241" type="line"/>
      <point x="22" y="293" type="line"/>
      <point x="71" y="297" type="line" smooth="yes"/>
      <point x="110" y="301"/>
      <point x="177" y="303" type="qcurve" smooth="yes"/>
      <point x="198" y="303"/>
      <point x="213" y="303"/>
      <point x="234" y="309"/>
      <point x="238" y="313"/>
      <point x="244" y="334"/>
      <point x="243" y="350"/>
      <point x="243" y="372" type="qcurve" smooth="yes"/>
      <point x="244" y="418" type="line"/>
      <point x="139" y="420" type="line" smooth="yes"/>
      <point x="33" y="421"/>
      <point x="26" y="429" type="qcurve" smooth="yes"/>
      <point x="19" y="438"/>
      <point x="15" y="541" type="qcurve" smooth="yes"/>
      <point x="10" y="643" type="line"/>
    </contour>
  </outline>
</glyph>
<glyph name="t" format="2">
  <advance width="242"/>
  <unicode hex="0074"/>
  <outline>
    <contour>
      <point x="25" y="779" type="qcurve" smooth="yes"/>
      <point x="26" y="788"/>
      <point x="28" y="795"/>
      <point x="36" y="799"/>
      <point x="45" y="800"/>
      <point x="57" y="800" type="qcurve" smooth="yes"/>
      <point x="87" y="800" type="line"/>
      <point x="85" y="707"/>
      <point x="84" y="614" type="qcurve"/>
      <point x="152" y="610"/>
      <point x="220" y="607" type="qcurve"/>
      <point x="220" y="548" type="line"/>
      <point x="83" y="548" type="line"/>
      <point x="78" y="463" type="line" smooth="yes"/>
      <point x="73" y="382"/>
      <point x="74" y="339" type="qcurve" smooth="yes"/>
      <point x="76" y="300" type="line"/>
      <point x="155" y="297"/>
      <point x="233" y="293" type="qcurve"/>
      <point x="233" y="241" type="line"/>
      <point x="200" y="237" type="line" smooth="yes"/>
      <point x="161" y="232"/>
      <point x="14" y="233"/>
      <point x="8" y="243"/>
      <point x="21" y="751"/>
    </contour>
  </outline>
</glyph>
<glyph name="u" format="2">
  <advance width="387"/>
  <unicode hex="0075"/>
  <outline>
    <contour>
      <point x="12" y="635" type="qcurve" smooth="yes"/>
      <point x="15" y="643"/>
      <point x="60" y="643"/>
      <point x="66" y="635" type="qcurve" smooth="yes"/>
      <point x="71" y="627"/>
      <point x="74" y="460" type="qcurve" smooth="yes"/>
      <point x="78" y="293" type="line"/>
      <point x="189" y="296" type="line" smooth="yes"/>
      <point x="301" y="298"/>
      <point x="305" y="303" type="qcurve" smooth="yes"/>
      <point x="310" y="307"/>
      <point x="317" y="461" type="qcurve" smooth="yes"/>
      <point x="323" y="613"/>
      <point x="334" y="625"/>
      <point x="356" y="622" type="qcurve" smooth="yes"/>
      <point x="378" y="620" type="line"/>
      <point x="376" y="442" type="line" smooth="yes"/>
      <point x="374" y="261"/>
      <point x="368" y="247" type="qcurve" smooth="yes"/>
      <point x="362" y="231" type="line"/>
      <point x="187" y="233" type="line"/>
      <point x="12" y="235" type="line"/>
      <point x="10" y="431" type="line" smooth="yes"/>
      <point x="9" y="627"/>
    </contour>
  </outline>
</glyph>
<glyph name="v" format="2">
  <advance width="344"/>
  <unicode hex="0076"/>
  <outline>
    <contour>
      <point x="11" y="639" type="qcurve" smooth="yes"/>
      <point x="15" y="649"/>
      <point x="58" y="651"/>
      <point x="67" y="642" type="qcurve" smooth="yes"/>
      <point x="75" y="634"/>
      <point x="75" y="559" type="qcurve" smooth="yes"/>
      <point x="75" y="483" type="line"/>
      <point x="105" y="434" type="line" smooth="yes"/>
      <point x="140" y="377"/>
      <point x="148" y="364" type="qcurve" smooth="yes"/>
      <point x="161" y="342"/>
      <point x="166" y="342" type="qcurve" smooth="yes"/>
      <point x="171" y="342"/>
      <point x="195" y="377" type="qcurve" smooth="yes"/>
      <point x="201" y="386"/>
      <point x="212" y="401" type="qcurve" smooth="yes"/>
      <point x="251" y="457"/>
      <point x="265" y="490"/>
      <point x="267" y="533" type="qcurve" smooth="yes"/>
      <point x="268" y="545"/>
      <point x="268" y="552" type="qcurve" smooth="yes"/>
      <point x="273" y="628"/>
      <point x="279" y="635" type="qcurve" smooth="yes"/>
      <point x="286" y="644"/>
      <point x="330" y="642"/>
      <point x="334" y="633" type="qcurve" smooth="yes"/>
      <point x="338" y="622"/>
      <point x="331" y="529" type="qcurve" smooth="yes"/>
      <point x="325" y="434" type="line"/>
      <point x="300" y="397" type="line" smooth="yes"/>
      <point x="289" y="382"/>
      <point x="237" y="305"/>
      <point x="217" y="278" type="qcurve" smooth="yes"/>
      <point x="198" y="253"/>
      <point x="183" y="244"/>
      <point x="161" y="246" type="qcurve" smooth="yes"/>
      <point x="153" y="246"/>
      <point x="145" y="247"/>
      <point x="134" y="252"/>
      <point x="130" y="255"/>
      <point x="119" y="268"/>
      <point x="113" y="278"/>
      <point x="105" y="292" type="qcurve" smooth="yes"/>
      <point x="66" y="356"/>
      <point x="46" y="388" type="qcurve" smooth="yes"/>
      <point x="15" y="441" type="line"/>
      <point x="11" y="535" type="line" smooth="yes"/>
      <point x="8" y="629"/>
    </contour>
  </outline>
</glyph>
<glyph name="w" format="2">
  <advance width="525"/>
  <unicode hex="0077"/>
  <outline>
    <contour>
      <point x="16" y="646" type="qcurve" smooth="yes"/>
      <point x="19" y="657"/>
      <point x="44" y="655" type="qcurve" smooth="yes"/>
      <point x="69" y="653" type="line"/>
      <point x="72" y="476"/>
      <point x="75" y="300" type="qcurve"/>
      <point x="226" y="300" type="line"/>
      <point x="231" y="470" type="line" smooth="yes"/>
      <point x="236" y="637"/>
      <point x="239" y="648" type="qcurve" smooth="yes"/>
      <point x="242" y="657"/>
      <point x="266" y="655" type="qcurve" smooth="yes"/>
      <point x="291" y="653" type="line"/>
      <point x="291" y="307" type="line"/>
      <point x="441" y="307" type="line"/>
      <point x="446" y="349" type="line" smooth="yes"/>
      <point x="451" y="396"/>
      <point x="452" y="522" type="qcurve" smooth="yes"/>
      <point x="454" y="653" type="line"/>
      <point x="479" y="655" type="line" smooth="yes"/>
      <point x="508" y="657"/>
      <point x="518" y="601"/>
      <point x="513" y="448" type="qcurve" smooth="yes"/>
      <point x="508" y="267"/>
      <point x="503" y="253" type="qcurve" smooth="yes"/>
      <point x="497" y="238" type="line"/>
      <point x="254" y="239" type="line"/>
      <point x="10" y="241" type="line"/>
      <point x="11" y="439" type="line" smooth="yes"/>
      <point x="12" y="638"/>
    </contour>
  </outline>
</glyph>
<glyph name="x" format="2">
  <advance width="403"/>
  <unicode hex="0078"/>
  <outline>
    <contour>
      <point x="16" y="633" type="qcurve" smooth="yes"/>
      <point x="16" y="653"/>
      <point x="26" y="663"/>
      <point x="46" y="663" type="qcurve" smooth="yes"/>
      <point x="63" y="663"/>
      <point x="110" y="621"/>
      <point x="152" y="568" type="qcurve" smooth="yes"/>
      <point x="178" y="534"/>
      <point x="192" y="523" type="qcurve" smooth="yes"/>
      <point x="202" y="514"/>
      <point x="210" y="514"/>
      <point x="221" y="525" type="qcurve" smooth="yes"/>
      <point x="238" y="540"/>
      <point x="289" y="598" type="qcurve" smooth="yes"/>
      <point x="326" y="641"/>
      <point x="347" y="656"/>
      <point x="366" y="655" type="qcurve" smooth="yes"/>
      <point x="385" y="653"/>
      <point x="393" y="646"/>
      <point x="394" y="628" type="qcurve" smooth="yes"/>
      <point x="395" y="611"/>
      <point x="377" y="582"/>
      <point x="330" y="530" type="qcurve" smooth="yes"/>
      <point x="265" y="460"/>
      <point x="260" y="449" type="qcurve" smooth="yes"/>
      <point x="257" y="441"/>
      <point x="287" y="407" type="qcurve" smooth="yes"/>
      <point x="293" y="400"/>
      <point x="304" y="387" type="qcurve" smooth="yes"/>
      <point x="363" y="318"/>
      <point x="383" y="291"/>
      <point x="381" y="276" type="qcurve" smooth="yes"/>
      <point x="381" y="273"/>
      <point x="381" y="272" type="qcurve" smooth="yes"/>
      <point x="380" y="262"/>
      <point x="379" y="254"/>
      <point x="372" y="248"/>
      <point x="363" y="247"/>
      <point x="352" y="246" type="qcurve" smooth="yes"/>
      <point x="338" y="249"/>
      <point x="333" y="242"/>
      <point x="310" y="263"/>
      <point x="293" y="282"/>
      <point x="268" y="312" type="qcurve" smooth="yes"/>
      <point x="245" y="340"/>
      <point x="205" y="382"/>
      <point x="202" y="382" type="qcurve" smooth="yes"/>
      <point x="195" y="382"/>
      <point x="176" y="361" type="qcurve" smooth="yes"/>
      <point x="156" y="336"/>
      <point x="109" y="288" type="qcurve" smooth="yes"/>
      <point x="75" y="253"/>
      <point x="53" y="238"/>
      <point x="36" y="239" type="qcurve" smooth="yes"/>
      <point x="22" y="240"/>
      <point x="12" y="247"/>
      <point x="11" y="257" type="qcurve" smooth="yes"/>
      <point x="8" y="278"/>
      <point x="32" y="317"/>
      <point x="81" y="369" type="qcurve" smooth="yes"/>
      <point x="146" y="437"/>
      <point x="147" y="447" type="qcurve" smooth="yes"/>
      <point x="147" y="457"/>
      <point x="110" y="501" type="qcurve" smooth="yes"/>
      <point x="67" y="549"/>
      <point x="30" y="596"/>
      <point x="16" y="621"/>
    </contour>
  </outline>
</glyph>
<glyph name="y" format="2">
  <advance width="398"/>
  <unicode hex="0079"/>
  <outline>
    <contour>
      <point x="15" y="672" type="qcurve" smooth="yes"/>
      <point x="20" y="677"/>
      <point x="46" y="675" type="qcurve" smooth="yes"/>
      <point x="72" y="673" type="line"/>
      <point x="76" y="519"/>
      <point x="79" y="365" type="qcurve"/>
      <point x="193" y="363" type="line" smooth="yes"/>
      <point x="307" y="362"/>
      <point x="313" y="368" type="qcurve" smooth="yes"/>
      <point x="319" y="374"/>
      <point x="322" y="493" type="qcurve" smooth="yes"/>
      <point x="325" y="619"/>
      <point x="328" y="642" type="qcurve" smooth="yes"/>
      <point x="331" y="669" type="line"/>
      <point x="389" y="669" type="line"/>
      <point x="389" y="606" type="line" smooth="yes"/>
      <point x="389" y="565"/>
      <point x="381" y="305" type="qcurve" smooth="yes"/>
      <point x="378" y="225"/>
      <point x="374" y="139"/>
      <point x="370" y="81"/>
      <point x="366" y="61"/>
      <point x="362" y="58" type="qcurve" smooth="yes"/>
      <point x="355" y="51"/>
      <point x="297" y="49"/>
      <point x="183" y="52" type="qcurve" smooth="yes"/>
      <point x="14" y="58" type="line"/>
      <point x="14" y="117" type="line"/>
      <point x="308" y="117" type="line"/>
      <point x="312" y="199" type="line" smooth="yes"/>
      <point x="318" y="280"/>
      <point x="314" y="289" type="qcurve" smooth="yes"/>
      <point x="312" y="297"/>
      <point x="169" y="297" type="qcurve" smooth="yes"/>
      <point x="26" y="297"/>
      <point x="18" y="305" type="qcurve" smooth="yes"/>
      <point x="12" y="311"/>
      <point x="9" y="666"/>
    </contour>
  </outline>
</glyph>
<glyph name="z" format="2">
  <advance width="370"/>
  <unicode hex="007A"/>
  <outline>
    <contour>
      <point x="115" y="656" type="line" smooth="yes"/>
      <point x="330" y="665"/>
      <point x="348" y="656" type="qcurve" smooth="yes"/>
      <point x="361" y="649"/>
      <point x="361" y="624" type="qcurve" smooth="yes"/>
      <point x="361" y="604"/>
      <point x="325" y="554"/>
      <point x="217" y="424" type="qcurve" smooth="yes"/>
      <point x="124" y="313"/>
      <point x="124" y="304" type="qcurve" smooth="yes"/>
      <point x="123" y="301"/>
      <point x="127" y="300" type="qcurve" smooth="yes"/>
      <point x="138" y="296"/>
      <point x="230" y="298" type="qcurve" smooth="yes"/>
      <point x="325" y="300" type="line"/>
      <point x="327" y="278" type="line" smooth="yes"/>
      <point x="329" y="250"/>
      <point x="289" y="239"/>
      <point x="170" y="235" type="qcurve" smooth="yes"/>
      <point x="110" y="233"/>
      <point x="23" y="233"/>
      <point x="21" y="235" type="qcurve" smooth="yes"/>
      <point x="16" y="241"/>
      <point x="11" y="265" type="qcurve" smooth="yes"/>
      <point x="9" y="280"/>
      <point x="16" y="299"/>
      <point x="34" y="320" type="qcurve" smooth="yes"/>
      <point x="45" y="334"/>
      <point x="212" y="538"/>
      <point x="230" y="559" type="qcurve" smooth="yes"/>
      <point x="256" y="590"/>
      <point x="256" y="593" type="qcurve" smooth="yes"/>
      <point x="256" y="597"/>
      <point x="144" y="599" type="qcurve" smooth="yes"/>
      <point x="30" y="601" type="line"/>
      <point x="30" y="653" type="line"/>
    </contour>
  </outline>
</glyph>
<glyph name="braceleft" format="2">
  <advance width="355"/>
  <unicode hex="007B"/>
  <outline>
    <contour>
      <point x="99" y="671" type="line"/>
      <point x="101" y="800" type="line"/>
      <point x="223" y="799" type="line"/>
      <point x="346" y="798" type="line"/>
      <point x="264" y="792" type="line" smooth="yes"/>
      <point x="183" y="786"/>
      <point x="174" y="784" type="qcurve" smooth="yes"/>
      <point x="166" y="780"/>
      <point x="167" y="505" type="qcurve" smooth="yes"/>
      <point x="169" y="228" type="line"/>
      <point x="220" y="225" type="line" smooth="yes"/>
      <point x="271" y="220"/>
      <point x="278" y="214" type="qcurve" smooth="yes"/>
      <point x="285" y="207"/>
      <point x="282" y="185" type="qcurve" smooth="yes"/>
      <point x="280" y="163" type="line"/>
      <point x="199" y="161" type="line" smooth="yes"/>
      <point x="118" y="159"/>
      <point x="104" y="173"/>
      <point x="101" y="322" type="qcurve" smooth="yes"/>
      <point x="97" y="470" type="line"/>
      <point x="61" y="472" type="line" smooth="yes"/>
      <point x="28" y="474"/>
      <point x="8" y="489"/>
      <point x="10" y="512" type="qcurve" smooth="yes"/>
      <point x="12" y="535" type="line"/>
      <point x="55" y="539"/>
      <point x="97" y="542" type="qcurve"/>
    </contour>
  </outline>
</glyph>
<glyph name="bar" format="2">
  <advance width="1019"/>
  <unicode hex="007C"/>
  <outline>
    <contour>
      <point x="10" y="-63"/>
      <point x="1010" y="-63"/>
      <point x="1010" y="-76"/>
      <point x="10" y="-76"/>
    </contour>
  </outline>
</glyph>
<glyph name="braceright" format="2">
  <advance width="261"/>
  <unicode hex="007D"/>
  <outline>
    <contour>
      <point x="82" y="794" type="line"/>
      <point x="52" y="797" type="line"/>
      <point x="59" y="798"/>
      <point x="115" y="799" type="qcurve" smooth="yes"/>
      <point x="200" y="800" type="line"/>
      <point x="200" y="555" type="line"/>
      <point x="226" y="552" type="line" smooth="yes"/>
      <point x="235" y="550"/>
      <point x="242" y="549"/>
      <point x="249" y="546"/>
      <point x="251" y="539"/>
      <point x="252" y="531"/>
      <point x="252" y="522" type="qcurve" smooth="yes"/>
      <point x="252" y="496" type="line"/>
      <point x="222" y="493"/>
      <point x="193" y="490" type="qcurve"/>
      <point x="188" y="339" type="line" smooth="yes"/>
      <point x="183" y="191"/>
      <point x="180" y="180" type="qcurve" smooth="yes"/>
      <point x="177" y="172"/>
      <point x="94" y="174" type="qcurve" smooth="yes"/>
      <point x="10" y="176" type="line"/>
      <point x="10" y="228" type="line"/>
      <point x="61" y="230" type="line" smooth="yes"/>
      <point x="96" y="232"/>
      <point x="114" y="237"/>
      <point x="117" y="246" type="qcurve" smooth="yes"/>
      <point x="121" y="256"/>
      <point x="134" y="653"/>
      <point x="134" y="748" type="qcurve" smooth="yes"/>
      <point x="134" y="790" type="line"/>
    </contour>
  </outline>
</glyph>
<glyph name="asciitilde" format="2">
  <advance width="435"/>
  <unicode hex="007E"/>
  <outline>
    <contour>
      <point x="12" y="622" type="qcurve" smooth="yes"/>
      <point x="15" y="631"/>
      <point x="255" y="631"/>
      <point x="263" y="622" type="qcurve" smooth="yes"/>
      <point x="269" y="614"/>
      <point x="272" y="575" type="qcurve" smooth="yes"/>
      <point x="274" y="535" type="line"/>
      <point x="359" y="535" type="line"/>
      <point x="366" y="572"/>
      <point x="372" y="607" type="qcurve"/>
      <point x="424" y="607" type="line"/>
      <point x="426" y="544" type="line" smooth="yes"/>
      <point x="428" y="482"/>
      <point x="418" y="474" type="qcurve" smooth="yes"/>
      <point x="409" y="466"/>
      <point x="312" y="468" type="qcurve" smooth="yes"/>
      <point x="215" y="470" type="line"/>
      <point x="208" y="515" type="line" smooth="yes"/>
      <point x="202" y="555"/>
      <point x="177" y="572"/>
      <point x="124" y="570" type="qcurve" smooth="yes"/>
      <point x="78" y="568" type="line"/>
      <point x="76" y="525" type="line" smooth="yes"/>
      <point x="74" y="487"/>
      <point x="59" y="466"/>
      <point x="36" y="468" type="qcurve" smooth="yes"/>
      <point x="12" y="470" type="line"/>
      <point x="10" y="541" type="line" smooth="yes"/>
      <point x="9" y="613"/>
    </contour>
  </outline>
</glyph>
<glyph name="sterling" format="2">
  <advance width="444"/>
  <unicode hex="00A3"/>
  <outline>
    <contour>
      <point x="98" y="648" type="qcurve" smooth="yes"/>
      <point x="92" y="800" type="line"/>
      <point x="435" y="800" type="line"/>
      <point x="433" y="779"/>
      <point x="431" y="758" type="qcurve"/>
      <point x="294" y="754"/>
      <point x="157" y="751" type="qcurve"/>
      <point x="159" y="676" type="line" smooth="yes"/>
      <point x="161" y="597"/>
      <point x="169" y="585" type="qcurve" smooth="yes"/>
      <point x="176" y="572"/>
      <point x="212" y="571" type="qcurve" smooth="yes"/>
      <point x="215" y="571"/>
      <point x="228" y="571" type="qcurve" smooth="yes"/>
      <point x="274" y="571"/>
      <point x="298" y="557"/>
      <point x="296" y="531" type="qcurve" smooth="yes"/>
      <point x="294" y="509" type="line"/>
      <point x="232" y="506"/>
      <point x="170" y="503" type="qcurve"/>
      <point x="172" y="443" type="line" smooth="yes"/>
      <point x="172" y="426"/>
      <point x="172" y="410"/>
      <point x="172" y="391"/>
      <point x="166" y="383"/>
      <point x="162" y="374"/>
      <point x="148" y="369"/>
      <point x="137" y="366"/>
      <point x="124" y="362" type="qcurve" smooth="yes"/>
      <point x="105" y="357"/>
      <point x="84" y="348"/>
      <point x="75" y="339"/>
      <point x="77" y="333" type="qcurve" smooth="yes"/>
      <point x="79" y="326"/>
      <point x="229" y="326" type="qcurve" smooth="yes"/>
      <point x="379" y="326" type="line"/>
      <point x="379" y="301" type="line" smooth="yes"/>
      <point x="379" y="289"/>
      <point x="376" y="278"/>
      <point x="369" y="272"/>
      <point x="360" y="270" type="qcurve" smooth="yes"/>
      <point x="342" y="265"/>
      <point x="25" y="262"/>
      <point x="17" y="267" type="qcurve" smooth="yes"/>
      <point x="9" y="272"/>
      <point x="10" y="322" type="qcurve" smooth="yes"/>
      <point x="11" y="379"/>
      <point x="25" y="405"/>
      <point x="62" y="417" type="qcurve" smooth="yes"/>
      <point x="104" y="431" type="line"/>
      <point x="104" y="463" type="line" smooth="yes"/>
      <point x="103" y="486"/>
    </contour>
  </outline>
</glyph>
<glyph name="quoteright" format="2">
  <advance width="81"/>
  <unicode hex="2019"/>
  <outline>
    <contour>
      <point x="11" y="733" type="qcurve" smooth="yes"/>
      <point x="14" y="800" type="line"/>
      <point x="72" y="800" type="line"/>
      <point x="70" y="717"/>
      <point x="68" y="633" type="qcurve"/>
      <point x="43" y="633" type="line" smooth="yes"/>
      <point x="25" y="633"/>
      <point x="13" y="645"/>
      <point x="8" y="689"/>
    </contour>
  </outline>
</glyph>
<glyph name="quotedblleft" format="2">
  <advance width="254"/>
  <unicode hex="201C"/>
  <outline>
    <contour>
      <point x="13" y="733" type="qcurve" smooth="yes"/>
      <point x="17" y="800" type="line"/>
      <point x="75" y="800" type="line"/>
      <point x="73" y="704"/>
      <point x="71" y="607" type="qcurve"/>
      <point x="13" y="607" type="line"/>
      <point x="11" y="637" type="line" smooth="yes"/>
      <point x="8" y="669"/>
    </contour>
    <contour>
      <point x="184" y="795" type="qcurve" smooth="yes"/>
      <point x="187" y="800"/>
      <point x="217" y="800" type="qcurve" smooth="yes"/>
      <point x="245" y="800" type="line"/>
      <point x="243" y="704"/>
      <point x="241" y="607" type="qcurve"/>
      <point x="220" y="605" type="line" smooth="yes"/>
      <point x="213" y="605"/>
      <point x="204" y="605"/>
      <point x="195" y="605"/>
      <point x="190" y="611"/>
      <point x="185" y="616"/>
      <point x="182" y="629"/>
      <point x="180" y="642"/>
      <point x="180" y="665"/>
      <point x="179" y="687"/>
      <point x="179" y="705" type="qcurve" smooth="yes"/>
      <point x="179" y="792"/>
    </contour>
  </outline>
</glyph>
<glyph name="quotedblright" format="2">
  <advance width="266"/>
  <unicode hex="201D"/>
  <outline>
    <contour>
      <point x="12" y="795" type="qcurve" smooth="yes"/>
      <point x="16" y="800"/>
      <point x="44" y="800" type="qcurve" smooth="yes"/>
      <point x="71" y="800" type="line"/>
      <point x="76" y="709" type="line" smooth="yes"/>
      <point x="81" y="617"/>
      <point x="76" y="611" type="qcurve" smooth="yes"/>
      <point x="72" y="604"/>
      <point x="29" y="605"/>
      <point x="23" y="612" type="qcurve" smooth="yes"/>
      <point x="17" y="619"/>
      <point x="7" y="791"/>
    </contour>
    <contour>
      <point x="194" y="746" type="qcurve" smooth="yes"/>
      <point x="199" y="800" type="line"/>
      <point x="257" y="800" type="line"/>
      <point x="255" y="700"/>
      <point x="253" y="601" type="qcurve"/>
      <point x="200" y="601" type="line"/>
      <point x="195" y="646" type="line" smooth="yes"/>
      <point x="189" y="693"/>
    </contour>
  </outline>
</glyph>
<glyph name="Euro" format="2">
  <advance width="397"/>
  <unicode hex="20AC"/>
  <outline>
    <contour>
      <point x="24" y="792" type="qcurve" smooth="yes"/>
      <point x="30" y="800"/>
      <point x="209" y="800" type="qcurve" smooth="yes"/>
      <point x="388" y="800" type="line"/>
      <point x="388" y="781" type="line" smooth="yes"/>
      <point x="388" y="762"/>
      <point x="380" y="755" type="qcurve" smooth="yes"/>
      <point x="370" y="747"/>
      <point x="228" y="746" type="qcurve" smooth="yes"/>
      <point x="85" y="744" type="line"/>
      <point x="85" y="627" type="line"/>
      <point x="150" y="624"/>
      <point x="215" y="620" type="qcurve"/>
      <point x="217" y="598" type="line" smooth="yes"/>
      <point x="220" y="576"/>
      <point x="212" y="569" type="qcurve" smooth="yes"/>
      <point x="205" y="562"/>
      <point x="141" y="558" type="qcurve" smooth="yes"/>
      <point x="98" y="556"/>
      <point x="78" y="551"/>
      <point x="78" y="533"/>
      <point x="98" y="528"/>
      <point x="143" y="525" type="qcurve" smooth="yes"/>
      <point x="209" y="522" type="line"/>
      <point x="209" y="463" type="line"/>
      <point x="143" y="460"/>
      <point x="78" y="457" type="qcurve"/>
      <point x="78" y="339" type="line"/>
      <point x="211" y="337" type="line" smooth="yes"/>
      <point x="346" y="335"/>
      <point x="354" y="328" type="qcurve" smooth="yes"/>
      <point x="363" y="321"/>
      <point x="361" y="297" type="qcurve" smooth="yes"/>
      <point x="359" y="274" type="line"/>
      <point x="187" y="272" type="line" smooth="yes"/>
      <point x="75" y="271"/>
      <point x="14" y="274"/>
      <point x="11" y="280" type="qcurve" smooth="yes"/>
      <point x="7" y="292"/>
      <point x="20" y="785"/>
    </contour>
  </outline>
</glyph>
